<?xml version="1.0" encoding="UTF-8" standalone="no"?>
<!-- Created with Inkscape (http://www.inkscape.org/) -->

<svg
   width="209.01701mm"
   height="77.889534mm"
   viewBox="0 0 209.01701 77.889534"
   version="1.1"
   id="svg5"
   inkscape:version="1.1.2 (0a00cf5339, 2022-02-04)"
   sodipodi:docname="dessin-2.svg"
   xmlns:inkscape="http://www.inkscape.org/namespaces/inkscape"
   xmlns:sodipodi="http://sodipodi.sourceforge.net/DTD/sodipodi-0.dtd"
   xmlns:xlink="http://www.w3.org/1999/xlink"
   xmlns="http://www.w3.org/2000/svg"
   xmlns:svg="http://www.w3.org/2000/svg">
  <sodipodi:namedview
     id="namedview7"
     pagecolor="#ffffff"
     bordercolor="#666666"
     borderopacity="1.0"
     inkscape:pageshadow="2"
     inkscape:pageopacity="0.0"
     inkscape:pagecheckerboard="0"
     inkscape:document-units="mm"
     showgrid="false"
     inkscape:lockguides="false"
     inkscape:zoom="0.35355339"
     inkscape:cx="-176.77669"
     inkscape:cy="287.08535"
     inkscape:window-width="1920"
     inkscape:window-height="1016"
     inkscape:window-x="0"
     inkscape:window-y="27"
     inkscape:window-maximized="1"
     inkscape:current-layer="g28962"
     inkscape:snap-bbox="true"
     inkscape:snap-global="true"
     width="209mm"
     fit-margin-top="0"
     fit-margin-left="0"
     fit-margin-right="0"
     fit-margin-bottom="0" />
  <defs
     id="defs2">
    <linearGradient
       inkscape:collect="always"
       id="linearGradient16717">
      <stop
         style="stop-color:#b2e71e;stop-opacity:1;"
         offset="0"
         id="stop16713" />
      <stop
         style="stop-color:#b2e71e;stop-opacity:0;"
         offset="1"
         id="stop16715" />
    </linearGradient>
    <linearGradient
       inkscape:collect="always"
       id="linearGradient15539">
      <stop
         style="stop-color:#000000;stop-opacity:1;"
         offset="0"
         id="stop15535" />
      <stop
         style="stop-color:#000000;stop-opacity:0;"
         offset="1"
         id="stop15537" />
    </linearGradient>
    <rect
       x="68.789894"
       y="349.00235"
       width="292.12085"
       height="89.123047"
       id="rect1750" />
    <linearGradient
       inkscape:collect="always"
       xlink:href="#linearGradient15539"
       id="linearGradient15541"
       x1="18.299994"
       y1="98.662727"
       x2="65.004021"
       y2="98.662727"
       gradientUnits="userSpaceOnUse" />
    <radialGradient
       inkscape:collect="always"
       xlink:href="#linearGradient16717"
       id="radialGradient16719"
       cx="41.652004"
       cy="98.662727"
       fx="41.652004"
       fy="98.662727"
       r="23.484303"
       gradientTransform="matrix(1,0,0,0.07728728,0,91.037357)"
       gradientUnits="userSpaceOnUse" />
  </defs>
  <g
     inkscape:label="Calque 1"
     inkscape:groupmode="layer"
     id="layer1"
     transform="translate(-1.3826841,-80.672285)">
    <g
       id="g28962">
      <path
         style="opacity:0.5;fill:none;stroke:#fff;stroke-width:2.83012;stroke-linecap:butt;stroke-linejoin:miter;stroke-miterlimit:4;stroke-dasharray:none;stroke-opacity:0.501961"
         d="m 104.33213,80.682369 c -0.20267,28.440481 -10.089136,22.961661 -11.527359,35.953261 -1.427231,12.89216 22.673219,13.01759 21.933659,24.81679 0.12162,7.7165 -1.03875,11.51466 1.76359,16.40595"
         id="path45278"
         sodipodi:nodetypes="cscc" />
      <g
         aria-label="Restocoop"
         transform="matrix(1.3253103,0,0,1.3253103,-91.039707,-373.10906)"
         id="text1748"
         style="font-weight:bold;font-size:30.2362px;line-height:1.25;-inkscape-font-specification:'sans-serif Bold';letter-spacing:2.08px;word-spacing:0px;white-space:pre;shape-inside:url(#rect1750)">
        <path
           d="m 72.598824,377.36226 q -1.360629,0 -1.935117,-0.39307 -0.574488,-0.42331 -0.695433,-1.05827 -0.120944,-0.66519 -0.120944,-1.33039 v -15.60188 q 0,-0.6652 0.120944,-1.30016 0.120945,-0.63496 0.695433,-1.02803 0.574488,-0.4233 1.965353,-0.4233 h 6.077476 q 1.148976,0 2.479369,0.48377 1.330392,0.45355 2.509604,1.42111 1.179212,0.96755 1.935117,2.41889 0.755905,1.45134 0.755905,3.44693 0,1.39086 -0.423307,2.60031 -0.39307,1.20945 -1.209448,2.20724 -0.786141,0.96756 -1.935117,1.72347 -1.118739,0.72567 -2.570077,1.14897 h -4.868028 v 2.93292 q 0,0.66519 -0.120945,1.30015 -0.120944,0.63496 -0.695432,1.05827 -0.574488,0.39307 -1.965353,0.39307 z m 12.668968,-0.72567 q -1.360629,1.02803 -2.146771,0.81638 -0.786141,-0.18142 -1.693227,-1.39087 l -5.563461,-7.55905 6.28913,-0.78614 3.749289,5.04945 q 0.604724,0.87685 0.755905,1.48157 0.181417,0.60472 -0.151181,1.14898 -0.332598,0.54425 -1.239684,1.23968 z m -9.887238,-10.46172 h 3.325982 q 0.272126,0 0.63496,-0.0907 0.393071,-0.12095 0.725669,-0.36284 0.332598,-0.27212 0.544252,-0.69543 0.241889,-0.42331 0.241889,-1.05827 0,-0.63496 -0.302362,-1.11874 -0.302362,-0.51401 -0.816377,-0.78614 -0.483779,-0.30236 -1.088503,-0.30236 h -3.26551 z"
           style="font-family:Fredoka;-inkscape-font-specification:'Fredoka Bold';fill:#1d800d"
           id="path29304" />
        <path
           d="m 97.234961,377.72509 q -2.267715,0 -3.839997,-0.72566 -1.572283,-0.75591 -2.539841,-1.93512 -0.967558,-1.20945 -1.421101,-2.60031 -0.453543,-1.39087 -0.453543,-2.69103 0,-2.38866 1.058267,-4.20283 1.058267,-1.81417 2.932911,-2.8422 1.874644,-1.02803 4.29354,-1.02803 1.874645,0 3.205033,0.60472 1.3304,0.60473 2.14677,1.54205 0.84662,0.93732 1.23969,1.99559 0.39307,1.05826 0.39307,1.96535 0,1.72346 -0.84661,2.63055 -0.84662,0.90709 -2.17701,0.90709 h -6.440311 q 0.120945,0.48377 0.483779,0.84661 0.393071,0.3326 0.967559,0.54425 0.574487,0.18142 1.239684,0.18142 0.665196,0 1.179212,-0.0605 0.514015,-0.0907 0.876849,-0.21166 0.393071,-0.12094 0.695438,-0.24189 0.33259,-0.12094 0.57448,-0.18141 0.27213,-0.0907 0.51402,-0.0907 0.54425,0 0.99779,0.36283 0.45355,0.36284 0.81638,1.0885 0.21165,0.39308 0.30236,0.75591 0.0907,0.3326 0.0907,0.63496 0,0.90709 -0.7559,1.51181 -0.72567,0.60472 -2.11654,0.90709 -1.390863,0.33259 -3.416689,0.33259 z m -2.449132,-9.22204 h 3.386454 q 0.423307,0 0.604724,-0.18141 0.211654,-0.18142 0.211654,-0.54426 0,-0.39307 -0.24189,-0.66519 -0.211653,-0.27213 -0.604724,-0.39307 -0.39307,-0.15118 -0.937322,-0.15118 -0.725669,0 -1.26992,0.30236 -0.544252,0.27212 -0.846614,0.72567 -0.272126,0.4233 -0.302362,0.90708 z"
           style="font-family:Fredoka;-inkscape-font-specification:'Fredoka Bold';fill:#1d800d"
           id="path29306" />
        <path
           d="m 113.40503,377.66462 q -0.84662,0 -1.90488,-0.21165 -1.02804,-0.18142 -2.02583,-0.54425 -0.96756,-0.39307 -1.60252,-0.90709 -0.63496,-0.51401 -0.63496,-1.17921 0,-0.30236 0.12095,-0.6652 0.15118,-0.39307 0.39307,-0.84661 0.24189,-0.45354 0.60472,-0.96756 0.21165,-0.30236 0.48378,-0.45354 0.30236,-0.15118 0.69543,-0.15118 0.54425,0 1.05827,0.24189 0.51402,0.21165 1.02803,0.51401 0.51402,0.27213 1.05827,0.51402 0.57449,0.21165 1.20945,0.21165 0.57448,0 0.84661,-0.12094 0.30236,-0.12095 0.30236,-0.36284 0,-0.24189 -0.21165,-0.39307 -0.18142,-0.15118 -0.54425,-0.24189 -0.3326,-0.12094 -0.78615,-0.21165 -0.45354,-0.0907 -0.96755,-0.21166 -0.51402,-0.12094 -1.05827,-0.30236 -0.69543,-0.21165 -1.36063,-0.54425 -0.6652,-0.36283 -1.20945,-0.93732 -0.51401,-0.57449 -0.84661,-1.39087 -0.30236,-0.81637 -0.30236,-1.99559 0,-1.57228 0.72567,-2.63055 0.72566,-1.05826 2.14677,-1.60251 1.4211,-0.54426 3.5074,-0.54426 0.51401,0 1.02803,0.0605 0.51401,0.0605 1.02803,0.18141 0.54425,0.12095 1.05826,0.3326 0.54426,0.18142 1.08851,0.42331 1.11874,0.48378 1.14897,1.36063 0.0302,0.84661 -0.63496,1.78393 -0.36283,0.57449 -0.7559,0.87685 -0.36284,0.27213 -0.75591,0.27213 -0.48378,0 -1.05826,-0.27213 -0.57449,-0.27212 -1.20945,-0.54425 -0.63496,-0.27212 -1.26992,-0.27212 -0.36284,0 -0.63496,0.0907 -0.24189,0.0605 -0.36284,0.21166 -0.12094,0.12094 -0.12094,0.30236 0,0.3326 0.21165,0.54425 0.24189,0.18142 0.60472,0.30236 0.39308,0.12095 0.87685,0.21166 0.51402,0.0907 1.08851,0.18141 0.78614,0.12095 1.60252,0.39307 0.84661,0.24189 1.54204,0.72567 0.69544,0.48378 1.11874,1.3304 0.42331,0.84661 0.42331,2.20724 0,2.57008 -1.72346,3.90047 -1.69323,1.33039 -5.01921,1.33039 z"
           style="font-family:Fredoka;-inkscape-font-specification:'Fredoka Bold';fill:#1d800d"
           id="path29308" />
        <path
           d="m 131.32874,377.3925 q -1.60252,0 -2.78173,-0.36284 -1.17922,-0.36283 -1.96536,-1.11874 -0.7559,-0.7559 -1.14897,-1.90488 -0.36284,-1.14897 -0.36284,-2.69102 v -11.73165 q 0,-0.69543 0.12095,-1.26992 0.12094,-0.60472 0.69543,-0.96756 0.57449,-0.39307 1.93512,-0.39307 1.33039,0 1.90488,0.42331 0.57448,0.39307 0.69543,1.02803 0.12094,0.63496 0.12094,1.30016 v 11.33857 q 0,0.3326 0.0302,0.57449 0.0605,0.21165 0.15118,0.3326 0.0907,0.12094 0.24189,0.18142 0.15118,0.0605 0.39307,0.0605 0.78614,0 1.39087,0.12094 0.63496,0.12095 0.96756,0.63496 0.36283,0.51402 0.36283,1.72347 0,1.36063 -0.42331,1.93511 -0.4233,0.57449 -1.05826,0.6652 -0.63496,0.12095 -1.26992,0.12095 z m -6.89386,-15.17858 h 3.53764 l 4.17259,-0.15118 q 0.6652,0 1.26992,0.12095 0.63496,0.12094 1.02803,0.69543 0.42331,0.57449 0.42331,1.96535 0,1.26992 -0.42331,1.84441 -0.39307,0.57449 -1.02803,0.72567 -0.60472,0.15118 -1.30015,0.15118 l -3.84,-0.0907 h -3.96094 q -1.02803,-0.0605 -1.4211,-0.66519 -0.39308,-0.60473 -0.39308,-1.99559 0,-1.30016 0.48378,-1.93512 0.48378,-0.6652 1.45134,-0.6652 z"
           style="font-family:Fredoka;-inkscape-font-specification:'Fredoka Bold';fill:#1d800d"
           id="path29310" />
        <path
           d="m 145.71484,377.66462 q -1.39087,0 -2.81197,-0.54425 -1.4211,-0.57449 -2.63055,-1.60252 -1.17921,-1.05827 -1.90488,-2.5096 -0.69543,-1.48158 -0.69543,-3.29575 0,-1.66299 0.63496,-3.11433 0.63496,-1.45134 1.72346,-2.53984 1.11874,-1.11874 2.53984,-1.7537 1.45134,-0.63496 3.0841,-0.63496 2.23748,0 4.05165,1.0885 1.81417,1.05827 2.90267,2.87244 1.08851,1.81418 1.08851,4.05165 0,1.90489 -0.72567,3.38646 -0.72567,1.48157 -1.90488,2.5096 -1.17922,1.02803 -2.60032,1.54205 -1.39086,0.54425 -2.75149,0.54425 z m -0.0605,-5.53322 q 0.45354,0 1.02803,-0.21166 0.60472,-0.24189 1.02803,-0.78614 0.45354,-0.54425 0.45354,-1.48157 0,-0.75591 -0.3326,-1.30016 -0.30236,-0.54425 -0.87685,-0.84661 -0.57448,-0.30236 -1.33039,-0.30236 -0.6652,0 -1.20945,0.33259 -0.54425,0.30237 -0.87685,0.87685 -0.3326,0.54426 -0.3326,1.26992 0,0.90709 0.42331,1.45134 0.42331,0.54425 0.9978,0.78614 0.57448,0.21166 1.02803,0.21166 z"
           style="font-family:Fredoka;-inkscape-font-specification:'Fredoka Bold';fill:#f50101"
           id="path29312" />
        <path
           d="m 164.87825,377.54368 q -1.23968,0 -2.63055,-0.48378 -1.36063,-0.51402 -2.57007,-1.48158 -1.20945,-0.99779 -1.96536,-2.47936 -0.7559,-1.48158 -0.7559,-3.44693 0,-1.93512 0.7559,-3.38646 0.75591,-1.48157 1.93512,-2.44913 1.20945,-0.96756 2.57008,-1.45134 1.39086,-0.51401 2.60031,-0.51401 1.14898,0 1.99559,0.24189 0.84661,0.24189 1.39086,0.54425 0.54426,0.27213 0.78615,0.42331 0.60472,0.36283 1.11873,0.84661 0.54426,0.45354 0.54426,1.23968 0,0.39308 -0.15118,0.81638 -0.15119,0.39307 -0.48378,0.90709 -1.08851,1.66299 -2.17701,1.66299 -0.48378,0 -0.84661,-0.15118 -0.36284,-0.18142 -0.6652,-0.39307 -0.30236,-0.21166 -0.6652,-0.36284 -0.3326,-0.18141 -0.84661,-0.18141 -0.60472,0 -1.11874,0.30236 -0.51402,0.30236 -0.81638,0.81638 -0.30236,0.48377 -0.30236,1.11873 0,0.63496 0.30236,1.14898 0.30236,0.51402 0.78614,0.81638 0.51402,0.30236 1.08851,0.30236 0.4233,0 0.69543,-0.0907 0.30236,-0.0907 0.45354,-0.18142 0.15118,-0.12094 0.18142,-0.12094 0.42331,-0.24189 0.78614,-0.45354 0.39307,-0.21166 0.78614,-0.21166 0.51402,0 1.05827,0.39307 0.54425,0.36284 1.20945,1.20945 0.63496,0.78614 0.69543,1.48158 0.0907,0.66519 -0.3326,1.26992 -0.42331,0.57448 -1.30015,1.11873 -0.0907,0.0605 -0.63497,0.36284 -0.51401,0.27213 -1.39086,0.54425 -0.87685,0.27213 -2.0863,0.27213 z"
           style="font-family:Fredoka;-inkscape-font-specification:'Fredoka Bold';fill:#1d800d"
           id="path29314" />
        <path
           d="m 181.95536,377.66462 q -1.39087,0 -2.81197,-0.54425 -1.4211,-0.57449 -2.63055,-1.60252 -1.17921,-1.05827 -1.90488,-2.5096 -0.69543,-1.48158 -0.69543,-3.29575 0,-1.66299 0.63496,-3.11433 0.63496,-1.45134 1.72346,-2.53984 1.11874,-1.11874 2.53984,-1.7537 1.45134,-0.63496 3.08409,-0.63496 2.23748,0 4.05165,1.0885 1.81418,1.05827 2.90268,2.87244 1.0885,1.81418 1.0885,4.05165 0,1.90489 -0.72567,3.38646 -0.72566,1.48157 -1.90488,2.5096 -1.17921,1.02803 -2.60031,1.54205 -1.39087,0.54425 -2.75149,0.54425 z m -0.0605,-5.53322 q 0.45355,0 1.02803,-0.21166 0.60473,-0.24189 1.02803,-0.78614 0.45355,-0.54425 0.45355,-1.48157 0,-0.75591 -0.3326,-1.30016 -0.30236,-0.54425 -0.87685,-0.84661 -0.57449,-0.30236 -1.33039,-0.30236 -0.6652,0 -1.20945,0.33259 -0.54425,0.30237 -0.87685,0.87685 -0.3326,0.54426 -0.3326,1.26992 0,0.90709 0.42331,1.45134 0.4233,0.54425 0.99779,0.78614 0.57449,0.21166 1.02803,0.21166 z"
           style="font-family:Fredoka;-inkscape-font-specification:'Fredoka Bold';fill:#1d800d"
           id="path29316" />
        <path
           d="m 200.90712,377.66462 q -1.39087,0 -2.81197,-0.54425 -1.4211,-0.57449 -2.63055,-1.60252 -1.17921,-1.05827 -1.90488,-2.5096 -0.69543,-1.48158 -0.69543,-3.29575 0,-1.66299 0.63496,-3.11433 0.63496,-1.45134 1.72346,-2.53984 1.11874,-1.11874 2.53984,-1.7537 1.45134,-0.63496 3.08409,-0.63496 2.23748,0 4.05165,1.0885 1.81418,1.05827 2.90268,2.87244 1.0885,1.81418 1.0885,4.05165 0,1.90489 -0.72567,3.38646 -0.72567,1.48157 -1.90488,2.5096 -1.17921,1.02803 -2.60031,1.54205 -1.39087,0.54425 -2.75149,0.54425 z m -0.0605,-5.53322 q 0.45355,0 1.02803,-0.21166 0.60473,-0.24189 1.02803,-0.78614 0.45355,-0.54425 0.45355,-1.48157 0,-0.75591 -0.3326,-1.30016 -0.30236,-0.54425 -0.87685,-0.84661 -0.57449,-0.30236 -1.33039,-0.30236 -0.6652,0 -1.20945,0.33259 -0.54425,0.30237 -0.87685,0.87685 -0.3326,0.54426 -0.3326,1.26992 0,0.90709 0.42331,1.45134 0.4233,0.54425 0.99779,0.78614 0.57449,0.21166 1.02803,0.21166 z"
           style="font-family:Fredoka;-inkscape-font-specification:'Fredoka Bold';fill:#1d800d"
           id="path29318" />
        <path
           d="m 220.46361,377.02966 q -1.48158,0 -2.57008,-0.60472 -1.0885,-0.60473 -1.78394,-1.63276 -0.69543,-1.05826 -1.02803,-2.38866 -0.3326,-1.33039 -0.30236,-2.81196 0.0302,-1.45134 0.36283,-2.81197 0.36284,-1.36063 1.05827,-2.4189 0.69543,-1.05826 1.7537,-1.66299 1.05827,-0.63496 2.50961,-0.63496 1.33039,0 2.57007,0.63496 1.26992,0.63496 2.26772,1.72347 0.99779,1.05826 1.57228,2.41889 0.57449,1.36063 0.57449,2.81197 0,1.51181 -0.57449,2.87244 -0.57449,1.33039 -1.57228,2.35842 -0.96756,0.9978 -2.23748,1.57228 -1.23968,0.57449 -2.60031,0.57449 z m -5.5937,6.77291 q -1.33039,0 -1.90488,-0.39307 -0.57449,-0.39307 -0.69543,-0.99779 -0.0907,-0.60473 -0.0907,-1.26993 v -16.41825 q 0,-0.6652 0.0907,-1.26992 0.12094,-0.60473 0.66519,-0.9978 0.57449,-0.4233 1.90488,-0.4233 1.05827,0 1.7537,0.30236 0.69544,0.27212 0.9978,0.87685 v 17.89983 q 0.0605,0.66519 -0.0907,1.26992 -0.12095,0.63496 -0.69543,1.02803 -0.57449,0.39307 -1.93512,0.39307 z m 4.86803,-11.91306 q 0.60472,0 1.0885,-0.30236 0.51402,-0.30237 0.81638,-0.78615 0.30236,-0.51401 0.30236,-1.0885 0,-0.60472 -0.30236,-1.0885 -0.27213,-0.51402 -0.78614,-0.78614 -0.48378,-0.30237 -1.08851,-0.30237 -0.60472,0 -1.11874,0.30237 -0.48378,0.30236 -0.78614,0.78614 -0.27212,0.48378 -0.27212,1.0885 0,0.57449 0.30236,1.0885 0.30236,0.48378 0.78614,0.78615 0.48378,0.30236 1.05827,0.30236 z"
           style="font-family:Fredoka;-inkscape-font-specification:'Fredoka Bold';fill:#1d800d"
           id="path29320" />
      </g>
      <g
         aria-label="coopérative alimentaire du Forez "
         id="text18748"
         style="font-size:3px;line-height:1.15;font-family:'Zen Kurenaido';-inkscape-font-specification:'Zen Kurenaido';letter-spacing:0.0661458px;word-spacing:0px;fill:url(#linearGradient15541);stroke:url(#radialGradient16719);stroke-width:0.07">
        <path
           d="m 4.3079678,144.1298 q -1.2773069,0 -2.0136368,-0.87158 -0.7363299,-0.8866 -0.7363299,-2.38931 0,-1.51774 0.7363299,-2.38932 0.7363299,-0.87157 2.0136368,-0.87157 1.2472526,0 1.9835825,0.85654 0.10519,0.10515 0.090163,0.25547 0,0.15027 -0.1202172,0.25546 -0.10519,0.0901 -0.2554614,0.0901 -0.1502714,-0.015 -0.2554613,-0.12022 -0.5109228,-0.60109 -1.4426055,-0.60109 -0.961737,0 -1.502714,0.6612 -0.5409771,0.66119 -0.5409771,1.86336 0,1.2172 0.5409771,1.8784 0.540977,0.66119 1.502714,0.66119 0.9467098,0 1.4426055,-0.58606 0.1051899,-0.12021 0.2554613,-0.13524 0.1502714,-0.015 0.2554614,0.0901 0.1202172,0.0901 0.1202172,0.24043 0.015027,0.15028 -0.090163,0.27049 -0.751357,0.84152 -1.9835825,0.84152 z"
           style="fill:#1d800d;stroke:#b2e71e;stroke-width:0.350634"
           id="path29341" />
        <path
           d="m 10.650143,144.1298 q -1.2773069,0 -2.0136368,-0.87158 -0.7363299,-0.8866 -0.7363299,-2.38931 0,-1.51774 0.7363299,-2.38932 0.7363299,-0.87157 2.0136368,-0.87157 1.26228,0 1.99861,0.87157 0.751357,0.87158 0.751357,2.38932 0,1.50271 -0.751357,2.38931 -0.73633,0.87158 -1.99861,0.87158 z m 0,-0.72131 q 0.976764,0 1.502714,-0.66119 0.52595,-0.6612 0.52595,-1.87839 0,-1.20217 -0.52595,-1.86337 -0.52595,-0.66119 -1.502714,-0.66119 -0.961737,0 -1.502714,0.66119 -0.5409771,0.6612 -0.5409771,1.86337 0,1.21719 0.5409771,1.87839 0.540977,0.66119 1.502714,0.66119 z"
           style="fill:#1d800d;stroke:#b2e71e;stroke-width:0.350634"
           id="path29343" />
        <path
           d="m 17.74367,144.1298 q -1.277307,0 -2.013637,-0.87158 -0.73633,-0.8866 -0.73633,-2.38931 0,-1.51774 0.73633,-2.38932 0.73633,-0.87157 2.013637,-0.87157 1.26228,0 1.998609,0.87157 0.751357,0.87158 0.751357,2.38932 0,1.50271 -0.751357,2.38931 -0.736329,0.87158 -1.998609,0.87158 z m 0,-0.72131 q 0.976764,0 1.502714,-0.66119 0.52595,-0.6612 0.52595,-1.87839 0,-1.20217 -0.52595,-1.86337 -0.52595,-0.66119 -1.502714,-0.66119 -0.961737,0 -1.502714,0.66119 -0.540977,0.6612 -0.540977,1.86337 0,1.21719 0.540977,1.87839 0.540977,0.66119 1.502714,0.66119 z"
           style="fill:#1d800d;stroke:#b2e71e;stroke-width:0.350634"
           id="path29345" />
        <path
           d="m 22.733396,147.28547 q -0.150272,0 -0.255462,-0.10514 -0.09016,-0.10515 -0.09016,-0.25546 v -8.95616 q 0,-0.15027 0.09016,-0.25546 0.10519,-0.10515 0.255462,-0.10515 0.150271,0 0.255461,0.10515 0.10519,0.10515 0.10519,0.25546 v 0.55601 q 0.330597,-0.42076 0.796439,-0.6612 0.480868,-0.25546 1.112008,-0.25546 1.277307,0 2.013637,0.87157 0.73633,0.87158 0.73633,2.38932 0,1.50271 -0.73633,2.38932 -0.73633,0.87157 -2.013637,0.87157 -0.63114,0 -1.112008,-0.24043 -0.465842,-0.24044 -0.796439,-0.6612 v 3.69666 q 0,0.15027 -0.10519,0.25546 -0.10519,0.10514 -0.255461,0.10514 z m 2.269098,-3.87698 q 0.976764,0 1.502714,-0.66119 0.540977,-0.6612 0.540977,-1.87839 0,-1.20217 -0.540977,-1.86337 -0.52595,-0.66119 -1.502714,-0.66119 -1.923474,0 -1.923474,2.52456 0,2.53958 1.923474,2.53958 z"
           style="fill:#1d800d;stroke:#b2e71e;stroke-width:0.350634"
           id="path29347" />
        <path
           d="m 32.096006,144.1298 q -1.277307,0 -2.013637,-0.87158 -0.73633,-0.8866 -0.73633,-2.38931 0,-1.51774 0.73633,-2.38932 0.73633,-0.87157 2.013637,-0.87157 1.112008,0 1.863365,0.76638 0.766384,0.76639 0.826493,2.07375 v 0.0451 q 0,0.13525 -0.10519,0.24044 -0.09016,0.10514 -0.255462,0.10514 h -4.35787 q 0,1.15709 0.480868,1.86337 0.495896,0.70627 1.547796,0.70627 0.540977,0 1.006818,-0.2254 0.480869,-0.24044 0.73633,-0.61612 0.09016,-0.12021 0.225407,-0.15027 0.150271,-0.03 0.270489,0.0601 0.120217,0.0751 0.150271,0.22541 0.03005,0.15027 -0.06011,0.27049 -0.360651,0.52595 -0.991791,0.84152 -0.616113,0.31557 -1.337415,0.31557 z m -1.983583,-3.99722 h 3.892029 q -0.150271,-0.85655 -0.661194,-1.32239 -0.495895,-0.46584 -1.247252,-0.46584 -0.811466,0 -1.322389,0.46584 -0.495895,0.46584 -0.661194,1.32239 z m 0.916656,-3.60652 q -0.120217,0.0901 -0.270489,0.0751 -0.150271,-0.03 -0.240434,-0.15027 -0.180326,-0.28552 0.09016,-0.51093 l 2.629749,-1.90844 q 0.120217,-0.0901 0.255462,-0.0601 0.150271,0.015 0.255461,0.13524 0.07514,0.12022 0.04508,0.27049 -0.01503,0.13524 -0.135245,0.22541 z"
           style="fill:#1d800d;stroke:#b2e71e;stroke-width:0.350634"
           id="path29349" />
        <path
           d="m 37.175886,144.1298 q -0.150272,0 -0.255462,-0.10515 -0.10519,-0.10515 -0.10519,-0.24043 v -5.80048 q 0,-0.15027 0.10519,-0.25546 0.10519,-0.10515 0.255462,-0.10515 0.150271,0 0.240434,0.10515 0.10519,0.10514 0.10519,0.25546 v 0.37568 q 0.225407,-0.27049 0.63114,-0.46584 0.405733,-0.21038 0.781411,-0.27049 0.52595,-0.0751 1.066927,0.0901 0.540977,0.15027 0.961737,0.52595 0.435787,0.37568 0.601086,0.99179 0.04508,0.13524 -0.03005,0.27049 -0.07514,0.12022 -0.21038,0.1653 -0.150272,0.03 -0.285516,-0.0451 -0.120217,-0.0751 -0.150271,-0.21038 -0.120218,-0.43579 -0.42076,-0.69125 -0.300543,-0.25546 -0.691249,-0.34562 -0.375678,-0.0901 -0.73633,-0.03 -0.646167,0.0751 -1.081954,0.48087 -0.435787,0.40573 -0.435787,1.29233 v 3.66662 q 0,0.13525 -0.10519,0.24044 -0.09016,0.10514 -0.240434,0.10514 z"
           style="fill:#1d800d;stroke:#b2e71e;stroke-width:0.350634"
           id="path29351" />
        <path
           d="m 47.530297,144.14482 q -0.150272,0 -0.255462,-0.10514 -0.10519,-0.0901 -0.10519,-0.24044 v -0.12021 l -1.848338,0.36065 q -0.691248,0.13524 -1.172117,0.0751 -0.480868,-0.0601 -0.811465,-0.30054 -0.240435,-0.19535 -0.390706,-0.48087 -0.135244,-0.30054 -0.165299,-0.67622 -0.09016,-0.87157 0.375679,-1.42758 0.480868,-0.57103 1.47266,-0.73633 l 2.539586,-0.43579 v -0.42076 q 0,-0.30054 -0.10519,-0.63114 -0.09016,-0.34562 -0.390705,-0.51092 -0.240435,-0.15027 -0.616113,-0.15027 -0.931683,0 -2.299153,0.84152 -0.135244,0.0751 -0.270488,0.0451 -0.135244,-0.0451 -0.21038,-0.1653 -0.09016,-0.13525 -0.06011,-0.27049 0.04508,-0.15027 0.165299,-0.21038 0.886601,-0.54098 1.547795,-0.73633 0.661195,-0.21038 1.127036,-0.21038 0.31557,0 0.540977,0.0751 0.240434,0.0601 0.405733,0.15028 0.435787,0.24043 0.661194,0.70627 0.225407,0.45082 0.225407,1.06693 v 4.16252 q 0,0.15027 -0.10519,0.24043 -0.09016,0.10515 -0.255461,0.10515 z m -2.329207,-0.82649 1.968555,-0.36065 v -2.17894 l -2.404342,0.40574 q -0.616113,0.10514 -0.901629,0.34562 -0.270488,0.24043 -0.330597,0.52595 -0.06011,0.27049 -0.04508,0.52595 0.04508,0.46584 0.285516,0.64617 0.360651,0.27049 1.427578,0.0901 z"
           style="fill:#1d800d;stroke:#b2e71e;stroke-width:0.350634"
           id="path29353" />
        <path
           d="m 52.489985,144.05466 q -0.616113,0 -0.976764,-0.34562 -0.345625,-0.36066 -0.345625,-0.94671 v -4.22263 h -1.442605 q -0.150271,0 -0.255461,-0.10515 -0.09016,-0.10514 -0.09016,-0.25546 0,-0.15027 0.09016,-0.24043 0.10519,-0.10515 0.255461,-0.10515 h 1.442605 v -2.20899 q 0,-0.15027 0.09016,-0.25546 0.10519,-0.10515 0.255462,-0.10515 0.150271,0 0.255461,0.10515 0.10519,0.10515 0.10519,0.25546 v 2.20899 h 1.863365 q 0.150272,0 0.255462,0.10515 0.10519,0.0901 0.10519,0.24043 0,0.15027 -0.10519,0.25546 -0.10519,0.10515 -0.255462,0.10515 h -1.863365 v 4.22263 q 0,0.0601 0.01503,0.21038 0.03005,0.13524 0.165299,0.25546 0.135244,0.10514 0.435787,0.10514 h 1.172117 q 0.165298,0 0.270488,0.10515 0.10519,0.10515 0.10519,0.25546 0,0.15027 -0.10519,0.25546 -0.10519,0.10515 -0.270488,0.10515 z"
           style="fill:#1d800d;stroke:#b2e71e;stroke-width:0.350634"
           id="path29355" />
        <path
           d="m 57.720131,144.14482 q -0.150271,0 -0.255461,-0.10514 -0.09016,-0.0901 -0.09016,-0.24044 v -5.24447 h -1.728121 q -0.150272,0 -0.255462,-0.10515 -0.10519,-0.12021 -0.10519,-0.27048 0,-0.15028 0.10519,-0.24044 0.10519,-0.10515 0.255462,-0.10515 h 2.073745 q 0.165299,0 0.270488,0.10515 0.10519,0.0901 0.10519,0.24044 v 5.62015 q 0,0.15027 -0.10519,0.24043 -0.105189,0.10515 -0.270488,0.10515 z m -0.180326,-9.03131 q -0.21038,0 -0.345624,-0.12022 -0.135244,-0.12021 -0.135244,-0.27048 v -0.93169 q 0,-0.15027 0.135244,-0.27049 0.135244,-0.13524 0.345624,-0.13524 0.21038,0 0.330597,0.13524 0.135245,0.12022 0.135245,0.27049 v 0.93169 q 0,0.15027 -0.135245,0.27048 -0.120217,0.12022 -0.330597,0.12022 z"
           style="fill:#1d800d;stroke:#b2e71e;stroke-width:0.350634"
           id="path29357" />
        <path
           d="m 62.785004,144.1298 q -0.240435,0 -0.330597,-0.22541 L 60.1252,138.11894 q -0.06011,-0.13524 0,-0.27049 0.06011,-0.13524 0.195353,-0.19535 0.135244,-0.0451 0.270488,0.015 0.135244,0.0451 0.195353,0.18033 l 1.99861,4.97398 2.028664,-4.97398 q 0.06011,-0.15027 0.195352,-0.19535 0.135245,-0.0601 0.270489,-0.015 0.120217,0.0601 0.180326,0.19535 0.07514,0.13525 0,0.27049 l -2.329207,5.80048 q -0.09016,0.22541 -0.345624,0.22541 z"
           style="fill:#1d800d;stroke:#b2e71e;stroke-width:0.350634"
           id="path29359" />
        <path
           d="m 69.367607,144.1298 q -1.277307,0 -2.013637,-0.87158 -0.73633,-0.8866 -0.73633,-2.38931 0,-1.51774 0.73633,-2.38932 0.73633,-0.87157 2.013637,-0.87157 1.112009,0 1.863366,0.76638 0.766384,0.76639 0.826493,2.07375 v 0.0451 q 0,0.13525 -0.10519,0.24044 -0.09016,0.10514 -0.255462,0.10514 h -4.357871 q 0,1.15709 0.480868,1.86337 0.495896,0.70627 1.547796,0.70627 0.540978,0 1.006819,-0.2254 0.480869,-0.24044 0.73633,-0.61612 0.09016,-0.12021 0.225407,-0.15027 0.150271,-0.03 0.270489,0.0601 0.120217,0.0751 0.150271,0.22541 0.03005,0.15027 -0.06011,0.27049 -0.360651,0.52595 -0.991791,0.84152 -0.616113,0.31557 -1.337416,0.31557 z m -1.983583,-3.99722 h 3.89203 q -0.150271,-0.85655 -0.661194,-1.32239 -0.495895,-0.46584 -1.247253,-0.46584 -0.811466,0 -1.322389,0.46584 -0.495895,0.46584 -0.661194,1.32239 z"
           style="fill:#1d800d;stroke:#b2e71e;stroke-width:0.350634"
           id="path29361" />
        <path
           d="m 83.133881,144.14482 q -0.150272,0 -0.255462,-0.10514 -0.10519,-0.0901 -0.10519,-0.24044 v -0.12021 l -1.848338,0.36065 q -0.691248,0.13524 -1.172117,0.0751 -0.480868,-0.0601 -0.811466,-0.30054 -0.240434,-0.19535 -0.390705,-0.48087 -0.135244,-0.30054 -0.165299,-0.67622 -0.09016,-0.87157 0.375679,-1.42758 0.480868,-0.57103 1.47266,-0.73633 l 2.539586,-0.43579 v -0.42076 q 0,-0.30054 -0.10519,-0.63114 -0.09016,-0.34562 -0.390705,-0.51092 -0.240435,-0.15027 -0.616113,-0.15027 -0.931683,0 -2.299153,0.84152 -0.135244,0.0751 -0.270488,0.0451 -0.135244,-0.0451 -0.21038,-0.1653 -0.09016,-0.13525 -0.06011,-0.27049 0.04508,-0.15027 0.165299,-0.21038 0.886601,-0.54098 1.547795,-0.73633 0.661195,-0.21038 1.127036,-0.21038 0.31557,0 0.540977,0.0751 0.240434,0.0601 0.405733,0.15028 0.435787,0.24043 0.661194,0.70627 0.225407,0.45082 0.225407,1.06693 v 4.16252 q 0,0.15027 -0.10519,0.24043 -0.09016,0.10515 -0.255461,0.10515 z m -2.329207,-0.82649 1.968555,-0.36065 v -2.17894 l -2.404342,0.40574 q -0.616113,0.10514 -0.901629,0.34562 -0.270488,0.24043 -0.330597,0.52595 -0.06011,0.27049 -0.04508,0.52595 0.04508,0.46584 0.285516,0.64617 0.360651,0.27049 1.427578,0.0901 z"
           style="fill:#1d800d;stroke:#b2e71e;stroke-width:0.350634"
           id="path29363" />
        <path
           d="m 87.146858,144.05466 q -0.601086,0 -0.976764,-0.34562 -0.360652,-0.36066 -0.360652,-0.94671 v -9.45208 q 0,-0.15027 0.10519,-0.25546 0.10519,-0.10514 0.255462,-0.10514 0.150271,0 0.255461,0.10514 0.10519,0.10515 0.10519,0.25546 v 9.45208 q 0,0.0601 0.01503,0.21038 0.03005,0.13524 0.165299,0.25546 0.135244,0.10514 0.435787,0.10514 h 1.187144 q 0.150271,0 0.255461,0.10515 0.10519,0.10515 0.10519,0.25546 0,0.15027 -0.10519,0.25546 -0.10519,0.10515 -0.255461,0.10515 z"
           style="fill:#1d800d;stroke:#b2e71e;stroke-width:0.350634"
           id="path29365" />
        <path
           d="m 92.061449,144.14482 q -0.150271,0 -0.255461,-0.10514 -0.09014,-0.0901 -0.09014,-0.24044 v -5.24447 h -1.728121 q -0.150272,0 -0.255462,-0.10515 -0.10519,-0.12021 -0.10519,-0.27048 0,-0.15028 0.10519,-0.24044 0.10519,-0.10515 0.255462,-0.10515 h 2.073745 q 0.165299,0 0.270489,0.10515 0.105146,0.0901 0.105146,0.24044 v 5.62015 q 0,0.15027 -0.105146,0.24043 -0.105147,0.10515 -0.270489,0.10515 z m -0.180325,-9.03131 q -0.21038,0 -0.345625,-0.12022 -0.135244,-0.12021 -0.135244,-0.27048 v -0.93169 q 0,-0.15027 0.135244,-0.27049 0.135245,-0.13524 0.345625,-0.13524 0.21038,0 0.330597,0.13524 0.135244,0.12022 0.135244,0.27049 v 0.93169 q 0,0.15027 -0.135244,0.27048 -0.120217,0.12022 -0.330597,0.12022 z"
           style="fill:#1d800d;stroke:#b2e71e;stroke-width:0.350634"
           id="path29367" />
        <path
           d="m 95.097649,144.14482 q -0.150271,0 -0.255461,-0.10514 -0.09014,-0.10515 -0.09014,-0.24044 v -5.8155 q 0,-0.13525 0.09014,-0.24044 0.105146,-0.12021 0.255461,-0.12021 0.150272,0 0.255462,0.12021 0.105146,0.10515 0.105146,0.24044 v 0.40573 q 0.330597,-0.34562 0.766384,-0.556 0.435787,-0.21038 0.931683,-0.21038 0.616113,0 1.081954,0.30054 0.465841,0.28552 0.721303,0.81147 0.31557,-0.4959 0.826493,-0.79644 0.510926,-0.31557 1.142066,-0.31557 0.96173,0 1.51774,0.69125 0.57103,0.69124 0.57103,1.84833 v 3.62155 q 0,0.13524 -0.10515,0.24043 -0.0901,0.10515 -0.24043,0.10515 -0.15027,0 -0.25546,-0.10515 -0.10515,-0.10515 -0.10515,-0.24043 v -3.62155 q 0,-0.21038 -0.0451,-0.51092 -0.0451,-0.30054 -0.18033,-0.60108 -0.13524,-0.30055 -0.42076,-0.4959 -0.27049,-0.21038 -0.73633,-0.21038 -0.73633,0 -1.202172,0.52595 -0.465841,0.51092 -0.465841,1.29233 v 3.62155 q 0,0.13524 -0.105146,0.24043 -0.09014,0.10515 -0.240435,0.10515 -0.150271,0 -0.270488,-0.10515 -0.105147,-0.10515 -0.105147,-0.24043 v -3.59149 q 0,-0.48087 -0.150271,-0.90163 -0.135244,-0.42076 -0.435787,-0.67622 -0.300543,-0.27049 -0.796439,-0.27049 -0.676221,0 -1.187144,0.42076 -0.510922,0.40573 -0.510922,1.06693 v 3.96716 q 0,0.13525 -0.105147,0.24044 -0.105146,0.10514 -0.255461,0.10514 z"
           style="fill:#1d800d;stroke:#b2e71e;stroke-width:0.350634"
           id="path29369" />
        <path
           d="m 107.66106,144.1298 q -1.27731,0 -2.01364,-0.87158 -0.73633,-0.8866 -0.73633,-2.38931 0,-1.51774 0.73633,-2.38932 0.73633,-0.87157 2.01364,-0.87157 1.112,0 1.86336,0.76638 0.76639,0.76639 0.82649,2.07375 v 0.0451 q 0,0.13525 -0.10514,0.24044 -0.0901,0.10514 -0.25546,0.10514 h -4.35787 q 0,1.15709 0.48086,1.86337 0.4959,0.70627 1.5478,0.70627 0.54098,0 1.00682,-0.2254 0.48087,-0.24044 0.73633,-0.61612 0.0901,-0.12021 0.22541,-0.15027 0.15027,-0.03 0.27048,0.0601 0.12022,0.0751 0.15028,0.22541 0.03,0.15027 -0.0601,0.27049 -0.36065,0.52595 -0.99179,0.84152 -0.61611,0.31557 -1.33741,0.31557 z m -1.98359,-3.99722 h 3.89203 q -0.15027,-0.85655 -0.66119,-1.32239 -0.4959,-0.46584 -1.24725,-0.46584 -0.81147,0 -1.32239,0.46584 -0.4959,0.46584 -0.6612,1.32239 z"
           style="fill:#1d800d;stroke:#b2e71e;stroke-width:0.350634"
           id="path29371" />
        <path
           d="m 112.72592,144.1298 q -0.15027,0 -0.25546,-0.10515 -0.0901,-0.0901 -0.0901,-0.24043 v -5.83054 q 0,-0.15027 0.0901,-0.25546 0.10515,-0.10514 0.25546,-0.10514 0.15027,0 0.25546,0.10514 0.10515,0.10515 0.10515,0.25546 v 0.4959 q 0.34562,-0.39071 0.82649,-0.61611 0.48087,-0.22541 1.03687,-0.22541 1.03688,0 1.62293,0.69125 0.60109,0.67622 0.60109,1.84834 v 3.60651 q 0,0.15027 -0.10515,0.25546 -0.0901,0.10515 -0.24043,0.10515 -0.15027,0 -0.25546,-0.10515 -0.10515,-0.10514 -0.10515,-0.25546 v -3.60651 q 0,-0.34563 -0.10514,-0.76639 -0.10515,-0.42076 -0.43579,-0.7213 -0.31557,-0.31557 -0.97677,-0.31557 -0.87157,0 -1.36747,0.48087 -0.49589,0.48087 -0.49589,1.36747 v 3.59149 q 0,0.15027 -0.10515,0.24043 -0.10514,0.10515 -0.25546,0.10515 z"
           style="fill:#1d800d;stroke:#b2e71e;stroke-width:0.350634"
           id="path29373" />
        <path
           d="m 121.77297,144.05466 q -0.61612,0 -0.97677,-0.34562 -0.34562,-0.36066 -0.34562,-0.94671 v -4.22263 h -1.44261 q -0.15027,0 -0.25546,-0.10515 -0.0901,-0.10514 -0.0901,-0.25546 0,-0.15027 0.0901,-0.24043 0.10515,-0.10515 0.25546,-0.10515 h 1.44261 v -2.20899 q 0,-0.15027 0.0901,-0.25546 0.10514,-0.10515 0.25546,-0.10515 0.15027,0 0.25546,0.10515 0.10515,0.10515 0.10515,0.25546 v 2.20899 h 1.86336 q 0.15027,0 0.25546,0.10515 0.10515,0.0901 0.10515,0.24043 0,0.15027 -0.10515,0.25546 -0.10514,0.10515 -0.25546,0.10515 h -1.86336 v 4.22263 q 0,0.0601 0.015,0.21038 0.03,0.13524 0.1653,0.25546 0.13525,0.10514 0.43579,0.10514 h 1.17212 q 0.16529,0 0.27048,0.10515 0.10515,0.10515 0.10515,0.25546 0,0.15027 -0.10515,0.25546 -0.10514,0.10515 -0.27048,0.10515 z"
           style="fill:#1d800d;stroke:#b2e71e;stroke-width:0.350634"
           id="path29375" />
        <path
           d="m 129.63287,144.14482 q -0.15027,0 -0.25546,-0.10514 -0.10515,-0.0901 -0.10515,-0.24044 v -0.12021 l -1.84834,0.36065 q -0.69125,0.13524 -1.17212,0.0751 -0.48086,-0.0601 -0.81146,-0.30054 -0.24044,-0.19535 -0.39071,-0.48087 -0.13524,-0.30054 -0.1653,-0.67622 -0.0901,-0.87157 0.37568,-1.42758 0.48087,-0.57103 1.47266,-0.73633 l 2.53959,-0.43579 v -0.42076 q 0,-0.30054 -0.10515,-0.63114 -0.0901,-0.34562 -0.3907,-0.51092 -0.24044,-0.15027 -0.61612,-0.15027 -0.93168,0 -2.29915,0.84152 -0.13524,0.0751 -0.27049,0.0451 -0.13524,-0.0451 -0.21038,-0.1653 -0.0901,-0.13525 -0.0601,-0.27049 0.0451,-0.15027 0.1653,-0.21038 0.8866,-0.54098 1.5478,-0.73633 0.66119,-0.21038 1.12703,-0.21038 0.31557,0 0.54098,0.0751 0.24043,0.0601 0.40573,0.15028 0.43579,0.24043 0.6612,0.70627 0.2254,0.45082 0.2254,1.06693 v 4.16252 q 0,0.15027 -0.10514,0.24043 -0.0901,0.10515 -0.25546,0.10515 z m -2.32921,-0.82649 1.96856,-0.36065 v -2.17894 l -2.40435,0.40574 q -0.61611,0.10514 -0.90163,0.34562 -0.27048,0.24043 -0.33059,0.52595 -0.0601,0.27049 -0.0451,0.52595 0.0451,0.46584 0.28552,0.64617 0.36065,0.27049 1.42758,0.0901 z"
           style="fill:#1d800d;stroke:#b2e71e;stroke-width:0.350634"
           id="path29377" />
        <path
           d="m 133.91632,144.14482 q -0.15027,0 -0.25546,-0.10514 -0.0901,-0.0901 -0.0901,-0.24044 v -5.24447 h -1.72812 q -0.15028,0 -0.25547,-0.10515 -0.10514,-0.12021 -0.10514,-0.27048 0,-0.15028 0.10514,-0.24044 0.10515,-0.10515 0.25547,-0.10515 h 2.07374 q 0.1653,0 0.27049,0.10515 0.10515,0.0901 0.10515,0.24044 v 5.62015 q 0,0.15027 -0.10515,0.24043 -0.10515,0.10515 -0.27049,0.10515 z m -0.18033,-9.03131 q -0.21038,0 -0.34562,-0.12022 -0.13524,-0.12021 -0.13524,-0.27048 v -0.93169 q 0,-0.15027 0.13524,-0.27049 0.13524,-0.13524 0.34562,-0.13524 0.21038,0 0.3306,0.13524 0.13524,0.12022 0.13524,0.27049 v 0.93169 q 0,0.15027 -0.13524,0.27048 -0.12022,0.12022 -0.3306,0.12022 z"
           style="fill:#1d800d;stroke:#b2e71e;stroke-width:0.350634"
           id="path29379" />
        <path
           d="m 136.96756,144.1298 q -0.15027,0 -0.25546,-0.10515 -0.10515,-0.10515 -0.10515,-0.24043 v -5.80048 q 0,-0.15027 0.10515,-0.25546 0.10514,-0.10515 0.25546,-0.10515 0.15027,0 0.24043,0.10515 0.10515,0.10514 0.10515,0.25546 v 0.37568 q 0.22541,-0.27049 0.63114,-0.46584 0.40573,-0.21038 0.78141,-0.27049 0.52595,-0.0751 1.06693,0.0901 0.54097,0.15027 0.96173,0.52595 0.43579,0.37568 0.60109,0.99179 0.0451,0.13524 -0.03,0.27049 -0.0751,0.12022 -0.21038,0.1653 -0.15027,0.03 -0.28552,-0.0451 -0.12021,-0.0751 -0.15027,-0.21038 -0.12022,-0.43579 -0.42076,-0.69125 -0.30054,-0.25546 -0.69125,-0.34562 -0.37568,-0.0901 -0.73633,-0.03 -0.64616,0.0751 -1.08195,0.48087 -0.43579,0.40573 -0.43579,1.29233 v 3.66662 q 0,0.13525 -0.10514,0.24044 -0.0902,0.10514 -0.24044,0.10514 z"
           style="fill:#1d800d;stroke:#b2e71e;stroke-width:0.350634"
           id="path29381" />
        <path
           d="m 145.71407,144.1298 q -1.27731,0 -2.01364,-0.87158 -0.73633,-0.8866 -0.73633,-2.38931 0,-1.51774 0.73633,-2.38932 0.73633,-0.87157 2.01364,-0.87157 1.11201,0 1.86337,0.76638 0.76638,0.76639 0.82649,2.07375 v 0.0451 q 0,0.13525 -0.10515,0.24044 -0.0901,0.10514 -0.25546,0.10514 h -4.35787 q 0,1.15709 0.48087,1.86337 0.49589,0.70627 1.54779,0.70627 0.54098,0 1.00682,-0.2254 0.48087,-0.24044 0.73633,-0.61612 0.0901,-0.12021 0.22541,-0.15027 0.15027,-0.03 0.27049,0.0601 0.12022,0.0751 0.15027,0.22541 0.03,0.15027 -0.0601,0.27049 -0.36065,0.52595 -0.99179,0.84152 -0.61611,0.31557 -1.33742,0.31557 z m -1.98358,-3.99722 h 3.89203 q -0.15027,-0.85655 -0.6612,-1.32239 -0.49589,-0.46584 -1.24725,-0.46584 -0.81146,0 -1.32239,0.46584 -0.49589,0.46584 -0.66119,1.32239 z"
           style="fill:#1d800d;stroke:#b2e71e;stroke-width:0.350634"
           id="path29383" />
        <path
           d="m 159.75083,144.14482 q -0.15027,0 -0.25546,-0.10514 -0.0901,-0.0901 -0.0901,-0.24044 v -0.63114 q -0.34562,0.43579 -0.84152,0.70628 -0.49589,0.25546 -1.14206,0.25546 -1.27731,0 -2.01364,-0.87157 -0.73633,-0.88661 -0.73633,-2.38932 0,-1.51774 0.73633,-2.38932 0.73633,-0.87157 2.01364,-0.87157 0.64617,0 1.14206,0.27049 0.4959,0.27049 0.84152,0.70627 v -5.27452 q 0,-0.15027 0.0901,-0.25546 0.10515,-0.10515 0.25546,-0.10515 0.15027,0 0.25546,0.10515 0.10515,0.10514 0.10515,0.25546 v 10.48894 q 0,0.15027 -0.10515,0.24044 -0.10514,0.10514 -0.25546,0.10514 z m -2.3292,-0.73633 q 0.96173,0 1.47266,-0.66119 0.51092,-0.6612 0.51092,-1.87839 0,-1.20217 -0.51092,-1.86337 -0.51093,-0.66119 -1.47266,-0.66119 -0.96174,0 -1.50272,0.66119 -0.54097,0.6612 -0.54097,1.86337 0,1.21719 0.54097,1.87839 0.54098,0.66119 1.50272,0.66119 z"
           style="fill:#1d800d;stroke:#b2e71e;stroke-width:0.350634"
           id="path29385" />
        <path
           d="m 164.6504,144.1298 q -1.03687,0 -1.63796,-0.67623 -0.58606,-0.67622 -0.58606,-1.86336 v -3.59149 q 0,-0.15027 0.0901,-0.25546 0.10515,-0.10515 0.25546,-0.10515 0.15028,0 0.25547,0.10515 0.10514,0.10515 0.10514,0.25546 v 3.59149 q 0,0.34562 0.10515,0.78141 0.10515,0.42076 0.42076,0.73633 0.3306,0.31557 0.99179,0.31557 0.8866,0 1.36747,-0.48087 0.4959,-0.48087 0.4959,-1.3825 v -3.57645 q 0,-0.15028 0.10514,-0.25547 0.10515,-0.12021 0.25546,-0.12021 0.15027,0 0.24044,0.12021 0.10514,0.10515 0.10514,0.25547 v 5.80047 q 0,0.15027 -0.10514,0.24044 -0.0901,0.10514 -0.24044,0.10514 -0.15027,0 -0.25546,-0.10514 -0.10514,-0.0901 -0.10514,-0.24044 v -0.46584 q -0.34563,0.37568 -0.8265,0.60109 -0.46584,0.21038 -1.03687,0.21038 z"
           style="fill:#1d800d;stroke:#b2e71e;stroke-width:0.350634"
           id="path29387" />
        <path
           d="m 174.29924,144.1298 q -0.15028,0 -0.27049,-0.10515 -0.10515,-0.10515 -0.10515,-0.25546 v -9.97802 q 0,-0.15027 0.10515,-0.25546 0.12021,-0.12022 0.27049,-0.12022 h 5.43982 q 0.15027,0 0.25546,0.12022 0.12022,0.10514 0.12022,0.25546 0,0.15027 -0.12022,0.27049 -0.10514,0.10514 -0.25546,0.10514 h -5.06415 v 4.05733 q 0.015,0 0.03,0 0.015,-0.015 0.03,-0.015 h 4.16251 q 0.1653,0 0.27049,0.10515 0.12022,0.10515 0.12022,0.27049 0,0.15027 -0.12022,0.27049 -0.10514,0.10514 -0.27049,0.10514 h -4.22262 v 4.80869 q 0,0.15027 -0.10515,0.25546 -0.10515,0.10515 -0.27049,0.10515 z"
           style="fill:#1d800d;stroke:#b2e71e;stroke-width:0.350634"
           id="path29389" />
        <path
           d="m 183.70693,144.1298 q -1.2773,0 -2.01363,-0.87158 -0.73633,-0.8866 -0.73633,-2.38931 0,-1.51774 0.73633,-2.38932 0.73633,-0.87157 2.01363,-0.87157 1.26228,0 1.99861,0.87157 0.75136,0.87158 0.75136,2.38932 0,1.50271 -0.75136,2.38931 -0.73633,0.87158 -1.99861,0.87158 z m 0,-0.72131 q 0.97677,0 1.50272,-0.66119 0.52595,-0.6612 0.52595,-1.87839 0,-1.20217 -0.52595,-1.86337 -0.52595,-0.66119 -1.50272,-0.66119 -0.96173,0 -1.50271,0.66119 -0.54098,0.6612 -0.54098,1.86337 0,1.21719 0.54098,1.87839 0.54098,0.66119 1.50271,0.66119 z"
           style="fill:#1d800d;stroke:#b2e71e;stroke-width:0.350634"
           id="path29391" />
        <path
           d="m 188.71168,144.1298 q -0.15027,0 -0.25546,-0.10515 -0.10515,-0.10515 -0.10515,-0.24043 v -5.80048 q 0,-0.15027 0.10515,-0.25546 0.10514,-0.10515 0.25546,-0.10515 0.15027,0 0.24043,0.10515 0.10515,0.10514 0.10515,0.25546 v 0.37568 q 0.22541,-0.27049 0.63114,-0.46584 0.40573,-0.21038 0.78141,-0.27049 0.52595,-0.0751 1.06693,0.0901 0.54097,0.15027 0.96173,0.52595 0.43579,0.37568 0.60109,0.99179 0.0451,0.13524 -0.03,0.27049 -0.0751,0.12022 -0.21038,0.1653 -0.15027,0.03 -0.28552,-0.0451 -0.12021,-0.0751 -0.15027,-0.21038 -0.12022,-0.43579 -0.42076,-0.69125 -0.30054,-0.25546 -0.69125,-0.34562 -0.37568,-0.0901 -0.73633,-0.03 -0.64616,0.0751 -1.08195,0.48087 -0.43579,0.40573 -0.43579,1.29233 v 3.66662 q 0,0.13525 -0.10514,0.24044 -0.0901,0.10514 -0.24044,0.10514 z"
           style="fill:#1d800d;stroke:#b2e71e;stroke-width:0.350634"
           id="path29393" />
        <path
           d="m 197.45819,144.1298 q -1.27731,0 -2.01364,-0.87158 -0.73633,-0.8866 -0.73633,-2.38931 0,-1.51774 0.73633,-2.38932 0.73633,-0.87157 2.01364,-0.87157 1.11201,0 1.86337,0.76638 0.76638,0.76639 0.82649,2.07375 v 0.0451 q 0,0.13525 -0.10515,0.24044 -0.0901,0.10514 -0.25546,0.10514 h -4.35787 q 0,1.15709 0.48087,1.86337 0.49589,0.70627 1.54779,0.70627 0.54098,0 1.00682,-0.2254 0.48087,-0.24044 0.73633,-0.61612 0.0901,-0.12021 0.22541,-0.15027 0.15027,-0.03 0.27049,0.0601 0.12022,0.0751 0.15027,0.22541 0.03,0.15027 -0.0601,0.27049 -0.36065,0.52595 -0.99179,0.84152 -0.61611,0.31557 -1.33742,0.31557 z m -1.98358,-3.99722 h 3.89203 q -0.15027,-0.85655 -0.6612,-1.32239 -0.49589,-0.46584 -1.24725,-0.46584 -0.81146,0 -1.32239,0.46584 -0.49589,0.46584 -0.66119,1.32239 z"
           style="fill:#1d800d;stroke:#b2e71e;stroke-width:0.350634"
           id="path29395" />
        <path
           d="m 202.3878,143.93444 q -0.21038,0 -0.3306,-0.19535 -0.015,-0.0451 -0.03,-0.0751 0,-0.0451 0,-0.0901 0,-0.12021 0.0901,-0.2254 1.20217,-1.47266 1.96856,-2.40435 0.78141,-0.94671 1.20217,-1.47266 0.43579,-0.52595 0.60109,-0.7213 0.16529,-0.21038 0.16529,-0.21038 h -3.39613 q -0.15027,0 -0.25546,-0.10515 -0.10515,-0.10514 -0.10515,-0.25546 0,-0.15027 0.10515,-0.24043 0.10514,-0.10515 0.25546,-0.10515 h 4.14749 q 0.24043,0 0.3306,0.19536 0.03,0.0601 0.03,0.15027 0,0.15027 -0.0751,0.2254 -1.20217,1.45764 -1.98358,2.40435 -0.76638,0.93168 -1.20217,1.47266 -0.42076,0.52595 -0.60109,0.73633 -0.1653,0.21038 -0.1653,0.21038 h 3.53138 q 0.1653,0 0.25546,0.10514 0.10515,0.0901 0.10515,0.24044 0,0.15027 -0.10515,0.25546 -0.0901,0.10514 -0.25546,0.10514 z"
           style="fill:#1d800d;stroke:#b2e71e;stroke-width:0.350634"
           id="path29397" />
      </g>
    </g>
  </g>
</svg>