<?xml version="1.0" encoding="UTF-8" standalone="no"?>
<!-- Created with Inkscape (http://www.inkscape.org/) -->

<svg
   width="73.414192mm"
   height="99.859474mm"
   viewBox="0 0 73.414192 99.859474"
   version="1.1"
   id="svg1"
   xml:space="preserve"
   inkscape:version="1.3 (0e150ed, 2023-07-21)"
   sodipodi:docname="tout-le-forez-en-cuisine.svg"
   xmlns:inkscape="http://www.inkscape.org/namespaces/inkscape"
   xmlns:sodipodi="http://sodipodi.sourceforge.net/DTD/sodipodi-0.dtd"
   xmlns="http://www.w3.org/2000/svg"
   xmlns:svg="http://www.w3.org/2000/svg"><sodipodi:namedview
     id="namedview1"
     pagecolor="#ffffff"
     bordercolor="#000000"
     borderopacity="0"
     inkscape:showpageshadow="2"
     inkscape:pageopacity="0.0"
     inkscape:pagecheckerboard="0"
     inkscape:deskcolor="#d1d1d1"
     inkscape:document-units="mm"
     inkscape:zoom="2.8284271"
     inkscape:cx="144.60334"
     inkscape:cy="217.78889"
     inkscape:window-width="1920"
     inkscape:window-height="1016"
     inkscape:window-x="0"
     inkscape:window-y="27"
     inkscape:window-maximized="1"
     inkscape:current-layer="layer1" /><defs
     id="defs1"><rect
       x="447.94614"
       y="445.80881"
       width="134.27048"
       height="61.469582"
       id="rect37" /><rect
       x="471.81015"
       y="494.76007"
       width="44.539085"
       height="17.150879"
       id="rect31" /><rect
       x="469.02365"
       y="494.74026"
       width="47.325806"
       height="17.736177"
       id="rect28" /></defs><g
     inkscape:label="Calque 1"
     inkscape:groupmode="layer"
     id="layer1"
     transform="translate(-107.29721,-69.910156)"><path
       style="fill:#b2e71e;fill-opacity:0.65;stroke:#000000;stroke-width:0.264583;stroke-opacity:1"
       d="m 112.26755,73.787483 c 0,0.061 0.73563,2.458313 1.06917,2.620703 0.33353,0.162391 -0.1564,1.722729 0.0508,2.210348 0.20722,0.487619 1.38132,1.985756 1.23702,2.372164 -0.14431,0.386406 -0.87643,0.425815 -0.95218,0.916501 -0.0758,0.490686 0.43723,1.393325 0.42546,1.898049 -0.0118,0.504725 -0.36615,0.896509 -0.32479,1.381951 0.0414,0.485444 1.82026,2.024676 1.77147,3.346513 -0.0488,1.321838 -0.62802,1.891829 -0.65321,2.566588 -0.0252,0.674759 0.51797,1.614231 0.58048,2.62186 0.0625,1.007628 1.03038,2.264553 1.01838,2.799577 -0.012,0.535027 -2.23598,3.118588 -3.30182,2.744399 -1.06583,-0.37419 -1.27402,-0.685467 -1.59908,-0.68529 -0.32504,1.78e-4 -0.0178,1.30251 -0.92245,1.214493 -0.90468,-0.08801 -1.60024,-0.442298 -1.87073,-0.351618 -0.27049,0.09068 -0.70519,0.166079 -0.74793,0.722519 -0.0427,0.55644 0.26796,0.77504 0.24863,0.9297 -0.0193,0.15466 -0.82298,0.73972 -0.82902,1.42718 -0.006,0.68747 3.92073,3.3769 3.96547,5.02001 0.0447,1.64311 -2.18929,1.32482 -2.251,1.5375 -0.0617,0.21269 -0.0893,0.558 -0.0746,0.78393 0.0148,0.22592 0.60478,0.0616 0.59767,0.2987 -0.007,0.23708 -0.45567,1.05557 -0.46025,1.41914 -0.005,0.36357 0.40854,0.66374 0.36971,1.61196 -0.0388,0.94823 -0.24366,1.0202 -0.31328,1.63569 -0.0696,0.61549 -1.88041,1.37431 -1.87193,1.96003 0.008,0.58572 3.12117,1.90294 3.11393,2.27389 -0.007,0.37094 -0.41036,0.61882 -0.41036,1.02433 0,0.40551 0.56582,1.31308 0.89815,1.33068 0.33234,0.0176 1.24822,0.0141 1.2843,0.36721 0.0361,0.35313 1.12287,1.58771 1.09999,1.82568 -0.0229,0.23796 0.10219,0.73091 0.24508,0.7438 0.14289,0.0129 0.24446,0.1328 0.24588,0.37077 0.001,0.23796 -0.56924,0.27377 -0.60363,0.8028 -0.0344,0.52903 2.99903,4.86784 3.03417,5.2471 0.0351,0.37925 0.57048,1.52795 1.04864,1.52923 0.47815,0.001 1.04952,0.004 1.23217,0.0217 0.18265,0.0173 1.90689,2.57446 2.76582,2.56948 0.85892,-0.005 2.79753,1.77605 2.82437,2.13464 0.0268,0.3586 1.17788,2.04431 1.17757,2.34982 -2.7e-4,0.30549 -0.45674,0.465 -0.39467,0.87024 0.0621,0.40525 0.50326,1.14976 0.52152,1.59704 0.0182,0.44728 1.27189,2.72018 1.68016,2.84428 0.40827,0.12409 0.48709,0.35375 0.45381,0.85607 -0.0333,0.50233 -1.08076,1.27554 -1.08689,1.74415 -0.006,0.4686 0.28204,0.72319 0.27631,1.62934 -0.006,0.90614 -0.60545,1.06938 -0.74038,1.5311 -0.13494,0.46171 -3.40272,1.76369 -3.48243,2.25798 -0.0797,0.49428 -1.08533,1.12705 -1.1079,2.23331 -0.0226,1.10627 0.003,1.5248 0.0162,1.73157 0.0137,0.20678 0.36304,0.37966 0.34416,0.73305 -0.0189,0.3534 -0.52597,0.64704 -0.50508,0.84355 0.0209,0.19652 0.69333,0.58795 0.69142,1.18988 -0.002,0.60194 0.19971,1.03229 0.5583,1.00945 0.3586,-0.0228 0.54116,-0.44034 0.61274,-1.2364 0.0716,-0.79605 1.05121,-0.74549 1.0505,-1.4254 -7.9e-4,-0.67991 0.53734,-0.89913 1.10897,-0.92548 0.57164,-0.0264 0.86332,-0.23108 1.48396,-0.25729 0.62065,-0.0262 1.23418,0.64788 1.25515,1.16167 0.021,0.51378 0.80543,0.70172 0.80663,1.17059 0.001,0.46887 0.53605,0.56395 0.55222,1.07485 0.0162,0.51091 0.0466,0.57831 0.3697,0.5879 0.32314,0.01 0.82649,-0.61584 0.85186,-1.00962 0.0254,-0.39379 -0.23686,-0.83085 0.29137,-0.87412 0.52823,-0.0433 0.64841,-0.38912 0.96857,-0.38912 0.32017,0 0.92273,1.44993 1.16332,1.47797 0.24058,0.028 1.30095,-1.76294 1.97304,-1.82572 0.6721,-0.0628 0.92361,0.21588 1.02651,0.20513 0.10291,-0.0107 0.63682,-1.03375 1.88855,-1.07489 1.25172,-0.0411 1.34569,0.0687 1.35831,-0.24517 0.0126,-0.3139 -0.86918,-0.71057 -0.82884,-0.95054 0.0403,-0.23996 1.07561,-0.95813 1.56078,-0.93498 0.48518,0.0231 0.62922,-0.24394 0.90449,-0.2173 0.27527,0.0266 1.23867,0.83274 1.47417,0.79447 0.2355,-0.0383 1.22557,-0.5 1.48029,-0.52306 0.25473,-0.0231 1.88146,1.63546 2.27891,1.64102 0.39745,0.006 0.74247,-0.31444 0.94078,-0.32023 0.1983,-0.006 0.30596,1.23487 1.32798,1.1661 1.02202,-0.0688 1.75598,-0.85388 2.33581,-0.9213 0.57982,-0.0674 2.75543,2.43709 2.73841,2.80941 -0.017,0.37233 -1.68187,1.9246 -1.68222,2.23371 -2.6e-4,0.3091 2.26619,1.34143 2.21231,1.97513 -0.0539,0.63371 -1.10888,1.40389 -1.136,1.83226 -0.0271,0.42837 1.45922,1.7993 2.07332,1.78473 0.6141,-0.0146 2.06907,-1.89714 2.95226,-1.85818 0.88319,0.039 4.00988,4.28389 5.29008,4.25885 1.2802,-0.025 0.14348,-0.95475 0.97333,-0.96147 0.82984,-0.007 0.89349,0.66886 1.38993,0.71922 0.49645,0.0504 0.858,-1.30257 2.58413,-1.33779 1.72613,-0.0352 2.33452,-0.41225 2.32676,-1.05142 -0.008,-0.63918 -1.20173,-0.92008 -1.16199,-1.40421 0.0397,-0.48413 1.70842,-2.8724 1.67024,-3.34428 -0.0382,-0.47188 1.47574,-0.82698 1.5164,-1.53687 0.0406,-0.7099 2.2227,-2.5633 3.12904,-2.64313 0.90635,-0.0798 3.64532,-1.98755 3.94246,-2.00435 0.29714,-0.0168 0.88972,-0.55646 0.91442,-1.68419 0.0247,-1.12774 -1.49384,-2.67495 -1.44703,-3.08416 0.0468,-0.4092 1.21935,-1.40024 1.15994,-2.0145 -0.0594,-0.61426 -0.30898,-0.72359 -0.30898,-1.05868 0,-0.33509 0.53581,-0.45486 0.50675,-0.89648 -0.0291,-0.44163 -1.41159,-1.19167 -1.34535,-2.01412 0.0662,-0.82244 -0.69772,-1.41323 -1.27554,-1.35493 -0.57781,0.0583 -1.34161,1.21716 -2.49998,1.22809 -1.15838,0.0109 -2.21404,-0.7893 -2.22541,-1.36951 -0.0114,-0.58022 -0.41369,-3.17457 -0.29386,-3.55516 0.11982,-0.38059 2.17569,-1.84389 2.23265,-2.16889 0.057,-0.32501 -0.61278,-1.29545 -0.97546,-1.2727 -0.36269,0.0228 -1.15021,0.32109 -1.15021,0.72376 0,0.40267 0.43391,0.95862 0.3793,1.21263 -0.0546,0.25401 -0.13747,0.42737 -0.56986,0.38779 -0.43239,-0.0396 -1.17406,-2.89395 -2.56156,-2.97339 -1.38751,-0.0794 -0.97262,0.56937 -1.59078,0.42453 -0.61815,-0.14485 -1.11746,-1.26706 -1.52781,-1.20228 -0.41036,0.0648 -1.07303,0.70662 -1.81968,0.64597 -0.74664,-0.0607 -0.94262,0.34513 -1.25279,0.36672 -0.31016,0.0216 -1.35418,-1.1055 -2.48248,-1.19592 -1.1283,-0.0904 -1.04526,-0.0782 -1.10115,-0.56533 -0.0559,-0.48713 -1.60064,-1.23395 -1.61423,-1.67861 -0.0136,-0.44465 -3.70933,-3.22868 -3.71005,-3.78956 -7.9e-4,-0.56089 -1.74676,-1.83981 -1.81505,-2.57281 -0.0683,-0.73301 0.62149,-3.20812 0.67658,-3.73426 0.0551,-0.52614 1.59322,-2.15068 1.51391,-2.59609 -0.0793,-0.44541 -0.80067,-1.16957 -1.12355,-1.1087 -0.32287,0.0609 -0.45629,0.50863 -0.77134,0.43901 -0.31506,-0.0696 -1.87193,-1.20423 -1.84918,-1.66763 0.0228,-0.46341 1.85175,-1.47406 1.84153,-2.56677 -0.0102,-1.09271 0.72865,-1.11453 0.76091,-1.43975 0.0323,-0.32523 -0.77824,-0.9329 -0.77824,-1.55443 0,-0.62153 0.6665,-0.81805 0.75194,-1.20339 0.0854,-0.38534 -0.52841,-0.5512 -0.52841,-0.74816 0,-0.19696 0.9409,-0.48633 0.97018,-1.18925 0.0293,-0.70293 -0.35491,-0.82924 -1.4362,-0.77255 -1.0813,0.0567 -1.98549,-1.0171 -1.99722,-1.35258 -0.0117,-0.3355 -1.51115,-1.82621 -1.52253,-2.09728 -0.0114,-0.27107 1.23742,-1.41825 1.1734,-2.00099 -0.064,-0.58275 -0.56844,-1.49752 -1.51404,-1.56669 -0.94561,-0.0692 -1.91352,-0.88891 -1.81635,-1.0733 0.0972,-0.18438 0.49771,-0.3713 0.49007,-0.685598 -0.008,-0.314299 -1.52946,-1.765472 -2.51239,-1.828694 -0.98292,-0.06323 -1.21916,0.04994 -1.18312,-0.753446 0.036,-0.803384 0.14173,-0.704882 0.5324,-0.71079 0.39067,-0.0059 0.3354,0.57599 0.90695,0.638902 0.57155,0.06291 0.0627,-0.559683 0.83151,-0.568348 0.76882,-0.0087 0.68249,0.563993 1.03917,0.56675 0.35669,0.0028 0.72967,-1.075385 0.71501,-1.910225 -0.0146,-0.83484 -0.0207,-1.126477 -1.19254,-1.108795 -1.17184,0.01767 -2.8561,-2.217811 -2.79887,-2.739377 0.0572,-0.521562 0.65228,-0.521073 1.41776,-0.530359 0.76549,-0.0093 2.54779,-2.038806 2.49737,-3.40636 -0.0504,-1.367555 0.36432,-3.041589 0.39667,-3.538495 0.0323,-0.496904 0.47735,-1.124834 1.23346,-1.21054 0.75611,-0.0857 2.14691,-1.711442 2.70117,-1.624182 0.55427,0.08726 1.83851,1.248039 2.34204,1.219292 0.50352,-0.02875 1.36644,-2.28628 1.48045,-2.821172 0.11401,-0.534892 -2.81695,-1.831893 -2.7942,-2.220743 0.0228,-0.388853 1.57722,-0.619977 1.63613,-1.39568 0.0589,-0.775706 -0.22526,-1.178639 -1.1307,-1.12186 -0.90543,0.05678 -0.53471,-0.809691 -0.93765,-0.768771 -0.40293,0.04092 -0.31434,1.428557 -0.80569,1.470367 -0.49135,0.04181 -0.98075,0.904504 -0.98119,1.127765 -5.3e-4,0.223261 0.47113,0.632994 0.43697,0.920724 -0.0342,0.287729 -0.55809,0.371525 -0.844,0.394271 -0.2859,0.02275 -0.44945,-0.446476 -0.74002,-0.346998 -0.29057,0.09948 -2.05391,1.844913 -2.72894,1.85553 -0.67502,0.01061 -1.19592,0.05238 -1.25457,0.608381 -0.0586,0.555998 -0.56999,0.907706 -1.29278,0.830307 -0.72278,-0.0774 -0.94836,-0.183184 -0.93161,-0.528849 0.0168,-0.345665 0.75163,-0.935564 0.7391,-1.319128 -0.0125,-0.383564 -0.78495,-1.326634 -1.15727,-1.349605 -0.37232,-0.02297 -1.27301,1.14594 -1.52022,1.092711 -0.24721,-0.05323 -0.27315,-1.088314 -0.91539,-0.939782 -0.64223,0.148529 -1.50196,-0.03728 -1.55656,0.587809 -0.0546,0.625084 -0.35486,0.957599 -1.33974,0.901483 -0.98488,-0.05611 -1.2879,-0.05531 -1.76512,-0.109029 -0.47722,-0.05372 -1.55243,-1.881833 -2.06066,-1.869705 -0.50823,0.01212 -0.89362,0.990878 -1.9902,0.890021 -1.09658,-0.100856 -2.25096,1.773558 -3.42009,1.813367 -1.16913,0.03981 -2.1102,0.07393 -2.46791,0.01754 -0.3577,-0.05638 -1.11448,-1.61463 -1.15997,-2.206305 -0.0455,-0.591674 -1.28052,-1.032465 -3.18279,-1.036018 -1.90227,-0.0035 -1.85181,-0.339349 -2.00569,-1.244216 -0.15388,-0.904865 0.87295,-2.841395 0.78228,-3.942866 -0.0907,-1.101471 -1.01256,-1.476462 -1.72924,-1.4316 -0.71668,0.04487 -0.50311,1.24863 -1.32082,1.27395 -0.81772,0.02532 -1.57222,0.510146 -2.39107,0.458058 -0.81885,-0.05209 -0.91724,-0.0771 -1.0497,0.665469 -0.13245,0.742566 0.0655,1.329431 -0.73094,1.343507 -0.79648,0.01408 -1.49561,0.0114 -1.49561,0.0114"
       id="path25" /><path
       style="fill:#000000;fill-opacity:0;stroke:#000000;stroke-width:0.264583;stroke-opacity:0.908362"
       d="m 139.58986,154.99727 c 0.0198,-1.02733 2.36537,-16.15456 19.46513,-21.40669"
       id="path26"
       sodipodi:nodetypes="cc" /><path
       style="fill:#000000;fill-opacity:0;stroke:#000000;stroke-width:0.264583;stroke-opacity:0.908362"
       d="m 110.59741,108.76707 c 2.48209,2.08809 23.64973,2.97758 39.20115,-3.74772"
       id="path27"
       sodipodi:nodetypes="cc" /><path
       style="fill:#00ffff;fill-opacity:0;stroke:#00eaeb;stroke-width:0.665;stroke-dasharray:none;stroke-opacity:0.908362"
       d="m 133.4345,78.297393 c 1.00856,3.724125 1.74983,4.371737 1.51968,5.417262 -0.23015,1.045528 -0.0203,3.107079 -0.048,4.448688 -0.0277,1.34161 1.23355,1.453751 0.62095,2.762303 -0.6126,1.308553 -3.89598,4.234535 -4.07459,4.884812 -0.17861,0.650277 -0.87954,2.946775 -1.50173,3.278933 -0.6222,0.332161 1.43029,5.968189 2.46337,6.032879 1.03309,0.0647 5.06396,5.43433 5.98313,7.60056 0.30073,0.70874 0.18301,2.37293 1.33322,2.99603 1.23549,0.6693 0.88916,1.72635 0.47466,3.85882 0.0596,0.80959 0.58041,0.94686 2.35307,2.10437 1.16803,0.7627 -0.14938,5.30951 -0.45547,6.52904 -0.24932,0.99337 2.23674,1.89453 2.44947,3.46167 0.21273,1.56713 0.35313,3.90166 1.77134,5.35843 1.4182,1.45677 0.96058,1.857 0.1699,2.49697 -0.79068,0.63997 -0.32541,3.52472 0.34122,4.68452 0.66663,1.1598 -0.9245,1.1287 -0.79921,2.31942 0.1253,1.19073 1.25044,1.12213 0.82658,2.95567 -0.42386,1.83353 -0.78588,4.72486 -1.86606,5.06431 -1.08018,0.33944 -1.02189,0.76348 -1.02189,0.76348"
       id="path28"
       sodipodi:nodetypes="csssssssscsssssssssc" /><path
       d="m 472.85743,496.42123 h 4.46876 v 0.88542 h -3.41668 v 2.29167 h 3.08334 v 0.88542 h -3.08334 v 3.71356 h -1.05208 z m 7.97398,2.61459 q -0.77084,0 -1.21876,0.60417 -0.44791,0.59896 -0.44791,1.64584 0,1.04688 0.44271,1.65104 0.44791,0.59897 1.22396,0.59897 0.76563,0 1.21354,-0.60417 0.44792,-0.60417 0.44792,-1.64584 0,-1.03646 -0.44792,-1.64063 -0.44791,-0.60938 -1.21354,-0.60938 z m 0,-0.8125 q 1.25,0 1.96355,0.8125 0.71354,0.8125 0.71354,2.25001 0,1.43229 -0.71354,2.25001 -0.71355,0.8125 -1.96355,0.8125 -1.25521,0 -1.96876,-0.8125 -0.70833,-0.81772 -0.70833,-2.25001 0,-1.43751 0.70833,-2.25001 0.71355,-0.8125 1.96876,-0.8125 z m 7.64586,1.03646 q -0.16146,-0.0937 -0.35417,-0.13542 -0.1875,-0.0469 -0.41667,-0.0469 -0.8125,0 -1.25,0.53125 -0.4323,0.52604 -0.4323,1.51563 v 3.07293 h -0.96354 v -5.83336 h 0.96354 v 0.90626 q 0.30209,-0.53126 0.78646,-0.78646 0.48438,-0.26042 1.17709,-0.26042 0.099,0 0.21875,0.0156 0.11979,0.0104 0.26563,0.0365 z m 5.76043,1.78126 v 0.46875 h -4.40626 q 0.0625,0.98958 0.59375,1.51042 0.53646,0.51563 1.48959,0.51563 0.55208,0 1.06771,-0.13542 0.52083,-0.13542 1.03125,-0.40625 v 0.90625 q -0.51562,0.21875 -1.05729,0.33333 -0.54167,0.11459 -1.09896,0.11459 -1.39584,0 -2.21355,-0.8125 -0.81251,-0.81251 -0.81251,-2.19793 0,-1.43229 0.77084,-2.27084 0.77604,-0.84375 2.08855,-0.84375 1.17709,0 1.85938,0.76042 0.6875,0.75521 0.6875,2.0573 z m -0.95833,-0.28126 q -0.0104,-0.78646 -0.44271,-1.25521 -0.42709,-0.46875 -1.13542,-0.46875 -0.80209,0 -1.28647,0.45313 -0.47917,0.45312 -0.55208,1.27604 z m 2.11459,-2.39584 h 4.55209 v 0.87501 l -3.60417,4.19272 h 3.60417 v 0.76563 h -4.6823 v -0.87501 l 3.60418,-4.19272 h -3.47397 z"
       id="text31"
       style="font-size:10.6667px;-inkscape-font-specification:'sans-serif, Normal';white-space:pre"
       transform="matrix(0.26458333,0,0,0.26458333,4.5931188,2.7803861)"
       aria-label="Forez" /><path
       d="m 127.03579,91.606488 q 0.0896,0.03032 0.17364,0.129535 0.0854,0.09922 0.17087,0.272851 l 0.2825,0.56224 h -0.29903 l -0.26321,-0.527789 q -0.10197,-0.206705 -0.19844,-0.274229 -0.0951,-0.06752 -0.26045,-0.06752 h -0.30316 v 0.869542 h -0.27837 v -2.05741 h 0.62839 q 0.35278,0 0.52641,0.14745 0.17363,0.14745 0.17363,0.445106 0,0.194303 -0.091,0.322461 -0.0896,0.128157 -0.26183,0.177767 z m -0.69728,-0.86403 v 0.73036 h 0.35002 q 0.20119,0 0.30317,-0.09233 0.10335,-0.09371 0.10335,-0.274229 0,-0.180523 -0.10335,-0.271473 -0.10198,-0.09233 -0.30317,-0.09233 z m 2.14284,0.463021 q -0.20395,0 -0.32246,0.159852 -0.11851,0.158474 -0.11851,0.43546 0,0.276985 0.11714,0.436838 0.11851,0.158474 0.32383,0.158474 0.20258,0 0.32109,-0.159852 0.11851,-0.159853 0.11851,-0.43546 0,-0.27423 -0.11851,-0.434082 -0.11851,-0.16123 -0.32109,-0.16123 z m 0,-0.214974 q 0.33073,0 0.51952,0.214974 0.1888,0.214974 0.1888,0.595312 0,0.37896 -0.1888,0.595312 -0.18879,0.214974 -0.51952,0.214974 -0.3321,0 -0.52089,-0.214974 -0.18742,-0.216352 -0.18742,-0.595312 0,-0.380338 0.18742,-0.595312 0.18879,-0.214974 0.52089,-0.214974 z m 1.83004,0.804774 q -0.3073,0 -0.42582,0.07028 -0.11851,0.07028 -0.11851,0.239778 0,0.135048 0.0882,0.214974 0.0896,0.07855 0.24253,0.07855 0.21084,0 0.33762,-0.148828 0.12816,-0.150206 0.12816,-0.398253 v -0.0565 z m 0.50574,-0.104731 v 0.880566 h -0.25356 v -0.234267 q -0.0868,0.14056 -0.21635,0.208084 -0.12954,0.06615 -0.31695,0.06615 -0.23702,0 -0.37758,-0.132292 -0.13919,-0.13367 -0.13919,-0.356912 0,-0.260449 0.17364,-0.39274 0.17501,-0.132292 0.52089,-0.132292 h 0.35554 v -0.0248 q 0,-0.175011 -0.11576,-0.270096 -0.11437,-0.09646 -0.32246,-0.09646 -0.13229,0 -0.25769,0.03169 -0.1254,0.03169 -0.24116,0.09508 v -0.234266 q 0.13918,-0.05374 0.2701,-0.07993 0.13091,-0.02756 0.25494,-0.02756 0.33486,0 0.50022,0.173633 0.16537,0.173632 0.16537,0.52641 z m 1.80523,-0.05099 v 0.931554 h -0.25356 v -0.923285 q 0,-0.219108 -0.0854,-0.327973 -0.0854,-0.108865 -0.25632,-0.108865 -0.20532,0 -0.32384,0.130913 -0.11851,0.130914 -0.11851,0.356912 v 0.872298 h -0.25493 v -1.543402 h 0.25493 v 0.239778 q 0.0909,-0.139181 0.2136,-0.208083 0.12402,-0.0689 0.28525,-0.0689 0.26596,0 0.40239,0.165364 0.13643,0.163987 0.13643,0.483691 z m 1.78869,0 v 0.931554 h -0.25356 v -0.923285 q 0,-0.219108 -0.0854,-0.327973 -0.0854,-0.108865 -0.25631,-0.108865 -0.20533,0 -0.32384,0.130913 -0.11851,0.130914 -0.11851,0.356912 v 0.872298 h -0.25494 v -1.543402 h 0.25494 v 0.239778 q 0.0909,-0.139181 0.21359,-0.208083 0.12402,-0.0689 0.28526,-0.0689 0.26596,0 0.40238,0.165364 0.13643,0.163987 0.13643,0.483691 z m 1.20716,0.155719 q -0.3073,0 -0.42581,0.07028 -0.11852,0.07028 -0.11852,0.239778 0,0.135048 0.0882,0.214974 0.0896,0.07855 0.24253,0.07855 0.21084,0 0.33762,-0.148828 0.12816,-0.150206 0.12816,-0.398253 v -0.0565 z m 0.50574,-0.104731 v 0.880566 h -0.25356 v -0.234267 q -0.0868,0.14056 -0.21635,0.208084 -0.12954,0.06615 -0.31695,0.06615 -0.23702,0 -0.37758,-0.132292 -0.13918,-0.13367 -0.13918,-0.356912 0,-0.260449 0.17363,-0.39274 0.17501,-0.132292 0.5209,-0.132292 h 0.35553 v -0.0248 q 0,-0.175011 -0.11576,-0.270096 -0.11437,-0.09646 -0.32246,-0.09646 -0.13229,0 -0.25769,0.03169 -0.1254,0.03169 -0.24116,0.09508 v -0.234266 q 0.13919,-0.05374 0.2701,-0.07993 0.13091,-0.02756 0.25494,-0.02756 0.33486,0 0.50022,0.173633 0.16537,0.173632 0.16537,0.52641 z m 0.52227,-0.662836 h 0.25356 v 1.543402 h -0.25356 z m 0,-0.600824 h 0.25356 v 0.321082 h -0.25356 z m 1.76803,0.646299 v 0.239779 q -0.10749,-0.05512 -0.22325,-0.08268 -0.11575,-0.02756 -0.23978,-0.02756 -0.18879,0 -0.28387,0.05788 -0.0937,0.05788 -0.0937,0.173633 0,0.08819 0.0675,0.139182 0.0675,0.04961 0.27147,0.09508 l 0.0868,0.01929 q 0.27009,0.05788 0.38309,0.163986 0.11438,0.104731 0.11438,0.293522 0,0.214974 -0.17088,0.340375 -0.1695,0.125402 -0.46715,0.125402 -0.12403,0 -0.25907,-0.02481 -0.13367,-0.02343 -0.2825,-0.07166 v -0.261827 q 0.14056,0.07304 0.27698,0.110243 0.13643,0.03583 0.2701,0.03583 0.17914,0 0.27561,-0.06063 0.0965,-0.06201 0.0965,-0.173632 0,-0.103353 -0.0703,-0.158475 -0.0689,-0.05512 -0.30455,-0.106109 l -0.0882,-0.02067 q -0.23565,-0.04961 -0.34038,-0.151584 -0.10473,-0.103353 -0.10473,-0.282498 0,-0.21773 0.15434,-0.336241 0.15434,-0.118511 0.43822,-0.118511 0.14056,0 0.26458,0.02067 0.12402,0.02067 0.22876,0.06201 z"
       id="text33"
       style="font-size:2.82222px;-inkscape-font-specification:'sans-serif, Normal';stroke-width:0.264583"
       aria-label="Roannais" /><g
       id="text36"
       style="font-size:2.82222px;-inkscape-font-specification:'sans-serif, Normal';stroke-width:0.264583"
       aria-label="Stéphanois&#10;    et Pilat"><path
         d="m 156.87697,149.4422 v 0.27147 q -0.15848,-0.0758 -0.29904,-0.113 -0.14056,-0.0372 -0.27147,-0.0372 -0.22738,0 -0.3514,0.0882 -0.12265,0.0882 -0.12265,0.2508 0,0.13643 0.0813,0.20671 0.0827,0.0689 0.31144,0.11162 l 0.16812,0.0344 q 0.31143,0.0593 0.45888,0.20946 0.14883,0.14883 0.14883,0.39963 0,0.29904 -0.20119,0.45338 -0.19982,0.15434 -0.58705,0.15434 -0.14607,0 -0.31143,-0.0331 -0.16399,-0.0331 -0.34038,-0.0978 v -0.28663 q 0.1695,0.0951 0.33211,0.14332 0.16261,0.0482 0.3197,0.0482 0.2384,0 0.36794,-0.0937 0.12953,-0.0937 0.12953,-0.26734 0,-0.15158 -0.0937,-0.23702 -0.0923,-0.0854 -0.30455,-0.12816 l -0.1695,-0.0331 q -0.31143,-0.062 -0.45062,-0.1943 -0.13918,-0.1323 -0.13918,-0.36794 0,-0.27285 0.19155,-0.42995 0.19293,-0.15709 0.53054,-0.15709 0.1447,0 0.2949,0.0262 0.15021,0.0262 0.30731,0.0786 z m 0.79788,0.008 v 0.43821 h 0.52228 v 0.19706 h -0.52228 v 0.83785 q 0,0.18879 0.051,0.24253 0.0524,0.0537 0.21084,0.0537 h 0.26045 v 0.21221 h -0.26045 q -0.29352,0 -0.40515,-0.10886 -0.11162,-0.11024 -0.11162,-0.39963 v -0.83785 h -0.18603 v -0.19706 h 0.18603 v -0.43821 z m 2.17592,1.14652 v 0.12403 h -1.16582 q 0.0165,0.26182 0.1571,0.39963 0.14194,0.13642 0.39412,0.13642 0.14607,0 0.28249,-0.0358 0.13781,-0.0358 0.27286,-0.10748 v 0.23978 q -0.13643,0.0579 -0.27975,0.0882 -0.14331,0.0303 -0.29076,0.0303 -0.36932,0 -0.58567,-0.21498 -0.21497,-0.21497 -0.21497,-0.58153 0,-0.37896 0.20395,-0.60082 0.20533,-0.22325 0.55259,-0.22325 0.31144,0 0.49196,0.2012 0.1819,0.19981 0.1819,0.54432 z m -0.25356,-0.0744 q -0.003,-0.20809 -0.11713,-0.33211 -0.113,-0.12402 -0.30041,-0.12402 -0.21222,0 -0.34038,0.11989 -0.12678,0.11989 -0.14607,0.33762 z m -0.24391,-1.34772 h 0.27423 l -0.44924,0.51814 h -0.21084 z m 1.15893,2.02571 v 0.81856 h -0.25494 v -2.13045 h 0.25494 v 0.23427 q 0.0799,-0.13781 0.20119,-0.20395 0.12265,-0.0675 0.29215,-0.0675 0.28112,0 0.45613,0.22325 0.17639,0.22324 0.17639,0.58704 0,0.3638 -0.17639,0.58704 -0.17501,0.22325 -0.45613,0.22325 -0.1695,0 -0.29215,-0.0661 -0.12127,-0.0675 -0.20119,-0.20533 z m 0.86265,-0.53881 q 0,-0.27974 -0.11576,-0.43822 -0.11437,-0.15985 -0.31557,-0.15985 -0.20119,0 -0.31694,0.15985 -0.11438,0.15848 -0.11438,0.43822 0,0.27974 0.11438,0.43959 0.11575,0.15848 0.31694,0.15848 0.2012,0 0.31557,-0.15848 0.11576,-0.15985 0.11576,-0.43959 z m 1.96646,-0.16123 v 0.93155 h -0.25356 v -0.92328 q 0,-0.21911 -0.0854,-0.32797 -0.0854,-0.10887 -0.25631,-0.10887 -0.20533,0 -0.32384,0.13091 -0.11851,0.13092 -0.11851,0.35692 v 0.87229 h -0.25494 v -2.14422 h 0.25494 v 0.8406 q 0.0909,-0.13918 0.21359,-0.20808 0.12403,-0.0689 0.28526,-0.0689 0.26596,0 0.40238,0.16537 0.13643,0.16399 0.13643,0.48369 z m 1.20716,0.15572 q -0.3073,0 -0.42581,0.0703 -0.11851,0.0703 -0.11851,0.23978 0,0.13504 0.0882,0.21497 0.0896,0.0786 0.24253,0.0786 0.21084,0 0.33762,-0.14883 0.12816,-0.15021 0.12816,-0.39825 v -0.0565 z m 0.50574,-0.10473 v 0.88056 h -0.25356 v -0.23426 q -0.0868,0.14056 -0.21635,0.20808 -0.12954,0.0661 -0.31695,0.0661 -0.23702,0 -0.37758,-0.1323 -0.13918,-0.13366 -0.13918,-0.35691 0,-0.26045 0.17363,-0.39274 0.17501,-0.13229 0.5209,-0.13229 h 0.35553 v -0.0248 q 0,-0.17501 -0.11575,-0.2701 -0.11438,-0.0965 -0.32247,-0.0965 -0.13229,0 -0.25769,0.0317 -0.1254,0.0317 -0.24115,0.0951 v -0.23427 q 0.13918,-0.0537 0.27009,-0.0799 0.13091,-0.0276 0.25494,-0.0276 0.33486,0 0.50022,0.17364 0.16537,0.17363 0.16537,0.52641 z m 1.80523,-0.051 v 0.93155 h -0.25356 v -0.92328 q 0,-0.21911 -0.0854,-0.32797 -0.0854,-0.10887 -0.25631,-0.10887 -0.20533,0 -0.32384,0.13091 -0.11851,0.13092 -0.11851,0.35692 v 0.87229 h -0.25494 v -1.5434 h 0.25494 v 0.23978 q 0.0909,-0.13918 0.21359,-0.20808 0.12403,-0.0689 0.28526,-0.0689 0.26596,0 0.40238,0.16537 0.13643,0.16399 0.13643,0.48369 z m 1.10381,-0.43408 q -0.20395,0 -0.32246,0.15985 -0.11852,0.15847 -0.11852,0.43546 0,0.27699 0.11714,0.43684 0.11851,0.15847 0.32384,0.15847 0.20257,0 0.32108,-0.15985 0.11851,-0.15985 0.11851,-0.43546 0,-0.27423 -0.11851,-0.43408 -0.11851,-0.16123 -0.32108,-0.16123 z m 0,-0.21498 q 0.33073,0 0.51952,0.21498 0.18879,0.21497 0.18879,0.59531 0,0.37896 -0.18879,0.59531 -0.18879,0.21498 -0.51952,0.21498 -0.33211,0 -0.5209,-0.21498 -0.18741,-0.21635 -0.18741,-0.59531 0,-0.38034 0.18741,-0.59531 0.18879,-0.21498 0.5209,-0.21498 z m 1.12861,0.0372 h 0.25356 v 1.5434 h -0.25356 z m 0,-0.60082 h 0.25356 v 0.32108 h -0.25356 z m 1.76802,0.6463 v 0.23978 q -0.10749,-0.0551 -0.22324,-0.0827 -0.11576,-0.0276 -0.23978,-0.0276 -0.18879,0 -0.28388,0.0579 -0.0937,0.0579 -0.0937,0.17363 0,0.0882 0.0675,0.13918 0.0675,0.0496 0.27147,0.0951 l 0.0868,0.0193 q 0.2701,0.0579 0.3831,0.16399 0.11437,0.10473 0.11437,0.29352 0,0.21497 -0.17087,0.34037 -0.1695,0.12541 -0.46716,0.12541 -0.12402,0 -0.25907,-0.0248 -0.13367,-0.0234 -0.2825,-0.0717 v -0.26182 q 0.14056,0.073 0.27699,0.11024 0.13642,0.0358 0.27009,0.0358 0.17915,0 0.27561,-0.0606 0.0965,-0.062 0.0965,-0.17363 0,-0.10335 -0.0703,-0.15847 -0.0689,-0.0551 -0.30454,-0.10611 l -0.0882,-0.0207 q -0.23564,-0.0496 -0.34037,-0.15159 -0.10473,-0.10335 -0.10473,-0.28249 0,-0.21773 0.15434,-0.33624 0.15434,-0.11852 0.43821,-0.11852 0.14056,0 0.26459,0.0207 0.12402,0.0207 0.22875,0.062 z"
         id="path37" /><path
         d="m 160.54117,154.12477 v 0.12402 h -1.16582 q 0.0165,0.26183 0.15709,0.39963 0.14194,0.13643 0.39412,0.13643 0.14608,0 0.2825,-0.0358 0.1378,-0.0358 0.27285,-0.10749 v 0.23978 q -0.13642,0.0579 -0.27974,0.0882 -0.14332,0.0303 -0.29077,0.0303 -0.36931,0 -0.58566,-0.21497 -0.21497,-0.21498 -0.21497,-0.58153 0,-0.37896 0.20394,-0.60083 0.20533,-0.22324 0.5526,-0.22324 0.31143,0 0.49196,0.20119 0.1819,0.19982 0.1819,0.54433 z m -0.25356,-0.0744 q -0.003,-0.20808 -0.11713,-0.3321 -0.113,-0.12403 -0.30042,-0.12403 -0.21221,0 -0.34037,0.11989 -0.12678,0.11989 -0.14607,0.33762 z m 0.92053,-1.07211 v 0.43822 h 0.52227 v 0.19706 h -0.52227 v 0.83784 q 0,0.18879 0.051,0.24254 0.0524,0.0537 0.21083,0.0537 h 0.26045 v 0.21222 h -0.26045 q -0.29352,0 -0.40514,-0.10887 -0.11162,-0.11024 -0.11162,-0.39963 v -0.83784 h -0.18603 v -0.19706 h 0.18603 v -0.43822 z m 2.04225,0.15296 v 0.77308 h 0.35002 q 0.1943,0 0.30041,-0.10059 0.10611,-0.1006 0.10611,-0.28664 0,-0.18465 -0.10611,-0.28525 -0.10611,-0.1006 -0.30041,-0.1006 z m -0.27836,-0.22875 h 0.62838 q 0.34589,0 0.52228,0.1571 0.17776,0.15571 0.17776,0.4575 0,0.30455 -0.17776,0.46027 -0.17639,0.15572 -0.52228,0.15572 h -0.35002 v 0.82682 h -0.27836 z m 1.62883,0.51401 h 0.25356 v 1.5434 h -0.25356 z m 0,-0.60083 h 0.25356 v 0.32109 h -0.25356 z m 0.78411,0 h 0.25356 v 2.14423 h -0.25356 z m 1.48552,1.36839 q -0.3073,0 -0.42581,0.0703 -0.11851,0.0703 -0.11851,0.23978 0,0.13505 0.0882,0.21498 0.0896,0.0785 0.24254,0.0785 0.21084,0 0.33762,-0.14882 0.12815,-0.15021 0.12815,-0.39826 v -0.0565 z m 0.50574,-0.10473 v 0.88057 h -0.25356 v -0.23427 q -0.0868,0.14056 -0.21635,0.20809 -0.12953,0.0661 -0.31695,0.0661 -0.23702,0 -0.37758,-0.13229 -0.13918,-0.13367 -0.13918,-0.35691 0,-0.26045 0.17363,-0.39274 0.17501,-0.13229 0.5209,-0.13229 h 0.35553 v -0.0248 q 0,-0.17501 -0.11575,-0.27009 -0.11438,-0.0965 -0.32246,-0.0965 -0.13229,0 -0.2577,0.0317 -0.1254,0.0317 -0.24115,0.0951 v -0.23426 q 0.13918,-0.0538 0.27009,-0.0799 0.13092,-0.0276 0.25494,-0.0276 0.33486,0 0.50023,0.17363 0.16536,0.17363 0.16536,0.52641 z m 0.77308,-1.10105 v 0.43822 h 0.52228 v 0.19706 h -0.52228 v 0.83784 q 0,0.18879 0.051,0.24254 0.0524,0.0537 0.21084,0.0537 h 0.26045 v 0.21222 h -0.26045 q -0.29352,0 -0.40515,-0.10887 -0.11162,-0.11024 -0.11162,-0.39963 v -0.83784 h -0.18603 v -0.19706 h 0.18603 v -0.43822 z"
         id="path38" /></g><path
       style="font-style:italic;font-size:16px;font-family:Ubuntu;-inkscape-font-specification:'Ubuntu, Italic';baseline-shift:baseline;white-space:pre;stroke:#000000;stroke-width:0.257675"
       d="m 114.80147,114.99622 -0.12561,0.5355 h -1.3817 l -0.97183,4.04596 h -0.64127 l 0.97182,-4.04596 h -1.38171 l 0.12561,-0.5355 z m 0.46937,4.6674 q -0.54211,0 -0.85283,-0.31733 -0.30411,-0.32394 -0.30411,-0.88588 0,-0.38344 0.10578,-0.80654 0.11239,-0.42311 0.35039,-0.78011 0.23799,-0.35699 0.61482,-0.58838 0.37683,-0.23139 0.91233,-0.23139 0.5421,0 0.84621,0.32394 0.31072,0.31733 0.31072,0.87927 0,0.38344 -0.11239,0.80655 -0.10577,0.42311 -0.34377,0.7801 -0.238,0.357 -0.61483,0.58839 -0.37683,0.23138 -0.91232,0.23138 z m 0.10577,-0.52227 q 0.2975,0 0.52889,-0.17189 0.238,-0.17188 0.39666,-0.43633 0.16528,-0.27105 0.25122,-0.59499 0.0859,-0.32394 0.0859,-0.62805 0,-0.33716 -0.14544,-0.53549 -0.14544,-0.19834 -0.50244,-0.19834 -0.2975,0 -0.53549,0.17189 -0.23139,0.17189 -0.39667,0.44294 -0.15866,0.26444 -0.2446,0.58839 -0.0859,0.32394 -0.0859,0.62804 0,0.33717 0.14544,0.5355 0.14545,0.19833 0.50244,0.19833 z m 3.50385,0.52227 q -0.29089,0 -0.48922,-0.0859 -0.19172,-0.0859 -0.31733,-0.23139 -0.119,-0.14544 -0.17188,-0.34377 -0.0529,-0.19833 -0.0529,-0.42311 0,-0.17189 0.0264,-0.33716 0.0331,-0.17189 0.0727,-0.34378 l 0.42311,-1.75853 h 0.61483 l -0.39005,1.62631 q -0.0331,0.15206 -0.086,0.357 -0.0529,0.20494 -0.0529,0.40988 0,0.119 0.0198,0.23139 0.0264,0.10578 0.0859,0.19172 0.0661,0.0793 0.17189,0.13222 0.10577,0.0463 0.26444,0.0463 0.28427,0 0.49583,-0.119 0.21816,-0.12561 0.36361,-0.29088 0.007,-0.10578 0.0198,-0.21817 0.0132,-0.11239 0.0463,-0.24461 l 0.50905,-2.12214 h 0.61482 l -0.52227,2.17503 q -0.0331,0.15205 -0.0595,0.2975 -0.0198,0.13883 -0.0198,0.29088 0,0.15206 0.0264,0.30411 0.0264,0.15206 0.0926,0.33055 l -0.54211,0.0793 q -0.0331,-0.0727 -0.0661,-0.16528 -0.0331,-0.0926 -0.0529,-0.19833 -0.0727,0.0661 -0.17188,0.13883 -0.0992,0.0727 -0.23139,0.13222 -0.12561,0.0595 -0.28428,0.0992 -0.15205,0.0397 -0.33716,0.0397 z m 3.55674,0.007 q -0.49583,0 -0.72722,-0.21816 -0.23138,-0.21816 -0.23138,-0.63466 0,-0.27105 0.0926,-0.69416 l 0.70738,-2.94192 0.64128,-0.10577 -0.25783,1.06438 h 1.17015 l -0.12561,0.51566 h -1.17015 l -0.36361,1.52054 q -0.0793,0.31072 -0.0793,0.5421 0,0.21817 0.11899,0.31733 0.119,0.0926 0.39667,0.0926 0.19172,0 0.37683,-0.0595 0.18511,-0.0661 0.28427,-0.119 l 0.0463,0.52227 q -0.0992,0.0595 -0.33716,0.12561 -0.238,0.0727 -0.54211,0.0727 z m 3.84101,-1.60648 q -0.0331,0.14544 -0.0661,0.28428 -0.0331,0.13883 -0.0331,0.26444 0,0.22477 0.10578,0.35699 0.11239,0.13222 0.40989,0.16528 l -0.13884,0.50244 q -0.27105,-0.007 -0.46277,-0.0793 -0.18511,-0.0793 -0.30411,-0.20495 -0.11239,-0.12561 -0.16527,-0.29749 -0.0529,-0.17189 -0.0529,-0.37683 0,-0.15206 0.0264,-0.31733 0.0265,-0.16528 0.0727,-0.34378 l 0.833,-3.46419 0.64127,-0.10577 z m 1.69242,-0.29089 q 0.38344,-0.0132 0.70077,-0.0463 0.31733,-0.0397 0.54871,-0.12561 0.23139,-0.0926 0.357,-0.24461 0.13222,-0.15206 0.13222,-0.39666 0,-0.0595 -0.0264,-0.12561 -0.0198,-0.0661 -0.0793,-0.119 -0.0529,-0.0595 -0.15205,-0.0926 -0.0992,-0.0397 -0.24461,-0.0397 -0.23139,0 -0.43633,0.0992 -0.19833,0.0992 -0.35699,0.26444 -0.15867,0.15867 -0.27106,0.37683 -0.11238,0.21156 -0.17188,0.44955 z m 0.62805,1.89076 q -0.33717,0 -0.58178,-0.0925 -0.24461,-0.0992 -0.40988,-0.26444 -0.16528,-0.17189 -0.24461,-0.39667 -0.0793,-0.22477 -0.0793,-0.47599 0,-0.46277 0.13883,-0.89249 0.13883,-0.42972 0.39666,-0.76027 0.25783,-0.33056 0.62805,-0.52228 0.37022,-0.19833 0.8396,-0.19833 0.27106,0 0.46278,0.0727 0.19833,0.0661 0.31733,0.18511 0.12561,0.119 0.18511,0.27767 0.0595,0.15205 0.0595,0.31733 0,0.31072 -0.11239,0.52888 -0.11239,0.21156 -0.2975,0.357 -0.18511,0.14544 -0.43633,0.22477 -0.24461,0.0793 -0.51566,0.12561 -0.26444,0.0463 -0.54211,0.0661 -0.27105,0.0132 -0.51566,0.0264 -0.007,0.0529 -0.007,0.0859 0,0.0331 0,0.0529 0,0.15205 0.0331,0.29089 0.0397,0.13222 0.13883,0.23799 0.0992,0.0992 0.27105,0.15867 0.1785,0.0595 0.46278,0.0595 0.12561,0 0.25783,-0.0198 0.13883,-0.0264 0.25783,-0.0595 0.12561,-0.0397 0.21816,-0.0727 0.0992,-0.0397 0.13883,-0.0727 l 0.0529,0.52228 q -0.13222,0.0727 -0.42972,0.15205 -0.29088,0.0859 -0.68754,0.0859 z m 3.51045,-0.0859 1.09744,-4.58146 h 2.67747 l -0.12561,0.5355 h -2.04281 l -0.33717,1.40154 h 1.81143 l -0.12561,0.52227 h -1.80481 l -0.50906,2.12215 z m 4.66739,0.0859 q -0.54211,0 -0.85283,-0.31733 -0.30411,-0.32394 -0.30411,-0.88588 0,-0.38344 0.10578,-0.80654 0.11239,-0.42311 0.35038,-0.78011 0.238,-0.35699 0.61483,-0.58838 0.37683,-0.23139 0.91233,-0.23139 0.5421,0 0.84621,0.32394 0.31072,0.31733 0.31072,0.87927 0,0.38344 -0.11239,0.80655 -0.10577,0.42311 -0.34377,0.7801 -0.238,0.357 -0.61483,0.58839 -0.37683,0.23138 -0.91232,0.23138 z m 0.10577,-0.52227 q 0.2975,0 0.52889,-0.17189 0.23799,-0.17188 0.39666,-0.43633 0.16528,-0.27105 0.25122,-0.59499 0.0859,-0.32394 0.0859,-0.62805 0,-0.33716 -0.14544,-0.53549 -0.14544,-0.19834 -0.50244,-0.19834 -0.2975,0 -0.5355,0.17189 -0.23138,0.17189 -0.39666,0.44294 -0.15866,0.26444 -0.24461,0.58839 -0.0859,0.32394 -0.0859,0.62804 0,0.33717 0.14544,0.5355 0.14545,0.19833 0.50244,0.19833 z m 4.21784,-3.07414 q 0.0793,0 0.1785,0.007 0.0992,0.007 0.19172,0.0264 0.0992,0.0132 0.17849,0.0331 0.0793,0.0132 0.119,0.0331 l -0.17849,0.53549 q -0.13223,-0.0529 -0.30411,-0.0793 -0.17189,-0.0264 -0.33056,-0.0264 -0.13883,0 -0.27766,0.0198 -0.13222,0.0198 -0.23139,0.0529 l -0.70077,2.90886 h -0.61482 l 0.79332,-3.30552 q 0.26444,-0.0926 0.56855,-0.14545 0.30411,-0.0595 0.60822,-0.0595 z m 1.30237,1.70565 q 0.38344,-0.0132 0.70077,-0.0463 0.31733,-0.0397 0.54871,-0.12561 0.23139,-0.0926 0.357,-0.24461 0.13222,-0.15206 0.13222,-0.39666 0,-0.0595 -0.0264,-0.12561 -0.0198,-0.0661 -0.0793,-0.119 -0.0529,-0.0595 -0.15205,-0.0926 -0.0992,-0.0397 -0.24461,-0.0397 -0.23138,0 -0.43633,0.0992 -0.19833,0.0992 -0.35699,0.26444 -0.15867,0.15867 -0.27106,0.37683 -0.11238,0.21156 -0.17188,0.44955 z m 0.62805,1.89076 q -0.33717,0 -0.58178,-0.0925 -0.24461,-0.0992 -0.40988,-0.26444 -0.16528,-0.17189 -0.24461,-0.39667 -0.0793,-0.22477 -0.0793,-0.47599 0,-0.46277 0.13883,-0.89249 0.13883,-0.42972 0.39666,-0.76027 0.25783,-0.33056 0.62805,-0.52228 0.37022,-0.19833 0.8396,-0.19833 0.27106,0 0.46278,0.0727 0.19833,0.0661 0.31733,0.18511 0.12561,0.119 0.18511,0.27767 0.0595,0.15205 0.0595,0.31733 0,0.31072 -0.11239,0.52888 -0.11239,0.21156 -0.2975,0.357 -0.18511,0.14544 -0.43633,0.22477 -0.24461,0.0793 -0.51566,0.12561 -0.26444,0.0463 -0.5421,0.0661 -0.27106,0.0132 -0.51567,0.0264 -0.007,0.0529 -0.007,0.0859 0,0.0331 0,0.0529 0,0.15205 0.0331,0.29089 0.0397,0.13222 0.13883,0.23799 0.0992,0.0992 0.27105,0.15867 0.1785,0.0595 0.46278,0.0595 0.12561,0 0.25783,-0.0198 0.13883,-0.0264 0.25783,-0.0595 0.12561,-0.0397 0.21816,-0.0727 0.0992,-0.0397 0.13883,-0.0727 l 0.0529,0.52228 q -0.13222,0.0727 -0.42972,0.15205 -0.29088,0.0859 -0.68754,0.0859 z m 4.912,-3.08074 q -0.19172,0.17188 -0.52227,0.48921 -0.32394,0.31072 -0.68094,0.67433 -0.357,0.357 -0.68755,0.71399 -0.32394,0.35039 -0.51566,0.60161 h 1.84448 l -0.119,0.51566 h -2.56508 l 0.0926,-0.39666 q 0.19833,-0.29089 0.50244,-0.64127 0.30411,-0.357 0.62805,-0.70739 0.33055,-0.35038 0.64788,-0.6611 0.31733,-0.31072 0.55533,-0.51566 h -1.64615 l 0.119,-0.51566 h 2.4527 z m -22.66924,9.76931 q 0.38345,-0.0132 0.70078,-0.0463 0.31733,-0.0397 0.54871,-0.12561 0.23139,-0.0926 0.357,-0.24461 0.13222,-0.15205 0.13222,-0.39666 0,-0.0595 -0.0264,-0.12561 -0.0198,-0.0661 -0.0793,-0.119 -0.0529,-0.0595 -0.15205,-0.0926 -0.0992,-0.0397 -0.24461,-0.0397 -0.23139,0 -0.43633,0.0992 -0.19833,0.0992 -0.357,0.26444 -0.15866,0.15866 -0.27105,0.37683 -0.11239,0.21155 -0.17189,0.44955 z m 0.62805,1.89076 q -0.33716,0 -0.58177,-0.0926 -0.24461,-0.0992 -0.40988,-0.26444 -0.16528,-0.17188 -0.24461,-0.39666 -0.0793,-0.22478 -0.0793,-0.476 0,-0.46277 0.13883,-0.89249 0.13883,-0.42972 0.39666,-0.76027 0.25783,-0.33055 0.62805,-0.52227 0.37022,-0.19833 0.8396,-0.19833 0.27106,0 0.46278,0.0727 0.19833,0.0661 0.31733,0.18511 0.12561,0.119 0.18511,0.27766 0.0595,0.15206 0.0595,0.31733 0,0.31072 -0.11239,0.52889 -0.11239,0.21155 -0.2975,0.35699 -0.18511,0.14545 -0.43633,0.22478 -0.24461,0.0793 -0.51566,0.12561 -0.26444,0.0463 -0.54211,0.0661 -0.27105,0.0132 -0.51566,0.0264 -0.007,0.0529 -0.007,0.086 0,0.033 0,0.0529 0,0.15205 0.0331,0.29088 0.0397,0.13222 0.13883,0.238 0.0992,0.0992 0.27105,0.15866 0.1785,0.0595 0.46277,0.0595 0.12561,0 0.25784,-0.0198 0.13883,-0.0264 0.25783,-0.0595 0.12561,-0.0397 0.21816,-0.0727 0.0992,-0.0397 0.13883,-0.0727 l 0.0529,0.52227 q -0.13222,0.0727 -0.42972,0.15206 -0.29088,0.0859 -0.68755,0.0859 z m 2.56509,-0.0859 h -0.61483 l 0.79332,-3.30553 q 0.30411,-0.0925 0.6545,-0.14544 0.35699,-0.0595 0.63466,-0.0595 0.2975,0 0.50905,0.0859 0.21816,0.0793 0.35038,0.22478 0.13223,0.13883 0.19172,0.34377 0.0661,0.19833 0.0661,0.43633 0,0.15206 -0.0264,0.32394 -0.0264,0.16528 -0.0661,0.33717 l -0.42311,1.75854 h -0.61482 l 0.39005,-1.62632 q 0.0463,-0.18511 0.0859,-0.37683 0.0463,-0.19172 0.0463,-0.36361 0,-0.26444 -0.14544,-0.43633 -0.14545,-0.1785 -0.54211,-0.1785 -0.16528,0 -0.32394,0.0198 -0.15867,0.0198 -0.26444,0.0529 z m 4.71366,-1.22966 q 0,-0.44955 0.13222,-0.86605 0.13883,-0.41649 0.40327,-0.73382 0.26444,-0.31733 0.64788,-0.50244 0.38344,-0.19172 0.87927,-0.19172 0.21817,0 0.4165,0.0331 0.19833,0.0264 0.37683,0.11239 l -0.23139,0.51566 q -0.10578,-0.0595 -0.25122,-0.0926 -0.13883,-0.0331 -0.36361,-0.0331 -0.32394,0 -0.58177,0.14545 -0.25783,0.13883 -0.44294,0.37682 -0.1785,0.23139 -0.27766,0.54211 -0.0926,0.30411 -0.0926,0.63466 0,0.17189 0.0331,0.32394 0.0397,0.15206 0.13222,0.27106 0.0926,0.11238 0.24461,0.17849 0.15866,0.0661 0.39666,0.0661 0.119,0 0.25122,-0.0198 0.13222,-0.0264 0.24461,-0.0595 0.11239,-0.033 0.19833,-0.0661 0.0926,-0.0397 0.13222,-0.0727 l 0.0529,0.52227 q -0.12561,0.0793 -0.39005,0.15206 -0.26444,0.0793 -0.60161,0.0793 -0.31733,0 -0.56194,-0.0926 -0.2446,-0.0992 -0.40988,-0.27105 -0.16528,-0.1785 -0.25122,-0.41649 -0.0859,-0.24461 -0.0859,-0.5355 z m 4.079,1.3156 q -0.29088,0 -0.48921,-0.0859 -0.19172,-0.086 -0.31733,-0.23139 -0.119,-0.14544 -0.17189,-0.34378 -0.0529,-0.19833 -0.0529,-0.4231 0,-0.17189 0.0264,-0.33717 0.0331,-0.17188 0.0727,-0.34377 l 0.4231,-1.75854 h 0.61483 l -0.39005,1.62632 q -0.0331,0.15205 -0.0859,0.357 -0.0529,0.20494 -0.0529,0.40988 0,0.119 0.0198,0.23139 0.0264,0.10577 0.0859,0.19172 0.0661,0.0793 0.17189,0.13222 0.10578,0.0463 0.26444,0.0463 0.28428,0 0.49583,-0.119 0.21817,-0.12561 0.36361,-0.29089 0.007,-0.10578 0.0198,-0.21816 0.0132,-0.11239 0.0463,-0.24461 l 0.50905,-2.12215 h 0.61483 l -0.52228,2.17504 q -0.0331,0.15205 -0.0595,0.29749 -0.0198,0.13883 -0.0198,0.29089 0,0.15205 0.0265,0.30411 0.0264,0.15205 0.0925,0.33055 l -0.54211,0.0793 q -0.0331,-0.0727 -0.0661,-0.16527 -0.0331,-0.0926 -0.0529,-0.19834 -0.0727,0.0661 -0.17189,0.13884 -0.0992,0.0727 -0.23139,0.13222 -0.12561,0.0595 -0.28427,0.0992 -0.15206,0.0397 -0.33717,0.0397 z m 2.9948,-0.0859 h -0.61482 l 0.82638,-3.43775 h 0.61482 z m 0.714,-4.05919 q -0.15206,0 -0.25783,-0.0926 -0.0992,-0.0926 -0.0992,-0.25783 0,-0.21156 0.13222,-0.33056 0.13222,-0.12561 0.2975,-0.12561 0.15205,0 0.25783,0.0992 0.10578,0.0926 0.10578,0.26444 0,0.19833 -0.13884,0.32394 -0.13883,0.119 -0.29749,0.119 z m 1.17675,3.62947 q 0.13883,0 0.27767,-0.0264 0.14544,-0.0264 0.25121,-0.0859 0.11239,-0.0595 0.1785,-0.15867 0.0727,-0.10577 0.0727,-0.25783 0,-0.0992 -0.0331,-0.17188 -0.0331,-0.0793 -0.10578,-0.14545 -0.0727,-0.0661 -0.18511,-0.12561 -0.10577,-0.0661 -0.25783,-0.14544 -0.15205,-0.0727 -0.27766,-0.14544 -0.12561,-0.0727 -0.22478,-0.17189 -0.0926,-0.0992 -0.14544,-0.23139 -0.0529,-0.13883 -0.0529,-0.33055 0,-0.49583 0.357,-0.79332 0.35699,-0.30411 1.03793,-0.30411 0.31733,0 0.55533,0.0661 0.24461,0.0595 0.33716,0.11239 l -0.23138,0.50244 q -0.0926,-0.0529 -0.2975,-0.11239 -0.20494,-0.0595 -0.45616,-0.0595 -0.12561,0 -0.25122,0.0264 -0.12561,0.0265 -0.23139,0.0926 -0.0992,0.0595 -0.16527,0.16527 -0.0595,0.0992 -0.0595,0.24461 0,0.1785 0.13883,0.2975 0.13883,0.11239 0.41649,0.238 0.17189,0.0793 0.30411,0.16527 0.13883,0.0793 0.23139,0.18511 0.0992,0.0992 0.14544,0.238 0.0529,0.13883 0.0529,0.33055 0,0.27767 -0.10578,0.48922 -0.10577,0.21155 -0.29749,0.35039 -0.18511,0.13883 -0.44294,0.20494 -0.25783,0.0727 -0.56194,0.0727 -0.22478,0 -0.40989,-0.0331 -0.1785,-0.0264 -0.31733,-0.0661 -0.13222,-0.0397 -0.22477,-0.0793 -0.086,-0.0463 -0.13222,-0.0727 l 0.23799,-0.50244 q 0.0463,0.0264 0.12561,0.0661 0.086,0.0397 0.19833,0.0793 0.119,0.0397 0.25783,0.0661 0.13884,0.0264 0.29089,0.0264 z m 2.47914,0.42972 h -0.61483 l 0.82638,-3.43775 h 0.61483 z m 0.71399,-4.05919 q -0.15206,0 -0.25783,-0.0926 -0.0992,-0.0926 -0.0992,-0.25783 0,-0.21156 0.13222,-0.33056 0.13222,-0.12561 0.2975,-0.12561 0.15205,0 0.25783,0.0992 0.10578,0.0926 0.10578,0.26444 0,0.19833 -0.13883,0.32394 -0.13884,0.119 -0.2975,0.119 z m 0.93215,4.05919 h -0.61483 l 0.79333,-3.30553 q 0.3041,-0.0925 0.65449,-0.14544 0.357,-0.0595 0.63466,-0.0595 0.2975,0 0.50905,0.0859 0.21817,0.0793 0.35039,0.22478 0.13222,0.13883 0.19172,0.34377 0.0661,0.19833 0.0661,0.43633 0,0.15206 -0.0265,0.32394 -0.0264,0.16528 -0.0661,0.33717 l -0.4231,1.75854 h -0.61483 l 0.39005,-1.62632 q 0.0463,-0.18511 0.0859,-0.37683 0.0463,-0.19172 0.0463,-0.36361 0,-0.26444 -0.14544,-0.43633 -0.14545,-0.1785 -0.54211,-0.1785 -0.16527,0 -0.32394,0.0198 -0.15866,0.0198 -0.26444,0.0529 z m 3.87406,-1.80482 q 0.38344,-0.0132 0.70077,-0.0463 0.31733,-0.0397 0.54872,-0.12561 0.23139,-0.0926 0.357,-0.24461 0.13222,-0.15205 0.13222,-0.39666 0,-0.0595 -0.0265,-0.12561 -0.0198,-0.0661 -0.0793,-0.119 -0.0529,-0.0595 -0.15205,-0.0926 -0.0992,-0.0397 -0.24461,-0.0397 -0.23139,0 -0.43633,0.0992 -0.19833,0.0992 -0.357,0.26444 -0.15866,0.15866 -0.27105,0.37683 -0.11239,0.21155 -0.17189,0.44955 z m 0.62805,1.89076 q -0.33716,0 -0.58177,-0.0926 -0.24461,-0.0992 -0.40988,-0.26444 -0.16528,-0.17188 -0.24461,-0.39666 -0.0793,-0.22478 -0.0793,-0.476 0,-0.46277 0.13884,-0.89249 0.13883,-0.42972 0.39666,-0.76027 0.25783,-0.33055 0.62805,-0.52227 0.37022,-0.19833 0.8396,-0.19833 0.27105,0 0.46277,0.0727 0.19834,0.0661 0.31734,0.18511 0.1256,0.119 0.1851,0.27766 0.0595,0.15206 0.0595,0.31733 0,0.31072 -0.11238,0.52889 -0.11239,0.21155 -0.2975,0.35699 -0.18511,0.14545 -0.43633,0.22478 -0.24461,0.0793 -0.51566,0.12561 -0.26444,0.0463 -0.54211,0.0661 -0.27105,0.0132 -0.51566,0.0264 -0.007,0.0529 -0.007,0.086 0,0.033 0,0.0529 0,0.15205 0.033,0.29088 0.0397,0.13222 0.13884,0.238 0.0992,0.0992 0.27105,0.15866 0.1785,0.0595 0.46277,0.0595 0.12561,0 0.25783,-0.0198 0.13884,-0.0264 0.25783,-0.0595 0.12561,-0.0397 0.21817,-0.0727 0.0992,-0.0397 0.13883,-0.0727 l 0.0529,0.52227 q -0.13222,0.0727 -0.42972,0.15206 -0.29088,0.0859 -0.68755,0.0859 z"
       id="text37"
       aria-label="Tout le Forez&#10;         en cuisine"
       inkscape:label="text37" /></g></svg>
